/* XPM */
static char *result[] = {
/* columns rows colors chars-per-pixel */
"40 40 188 2 ",
"   c #403B2B",
".  c #533D38",
"X  c #54453D",
"o  c #5A443F",
"O  c #53483C",
"+  c #4C4C41",
"@  c #574741",
"#  c #5C4641",
"$  c #574841",
"%  c #5C4B44",
"&  c #5D4F49",
"*  c #4E5047",
"=  c #555442",
"-  c #5C5346",
";  c #55564E",
":  c #5E514B",
">  c #585949",
",  c #5C5551",
"<  c #575B55",
"1  c #5D5A55",
"2  c #575C58",
"3  c #5D5D5B",
"4  c #634C46",
"5  c #654E49",
"6  c #6A4F4A",
"7  c #63544E",
"8  c #6D534D",
"9  c #6B5A4F",
"0  c #71554F",
"q  c #625650",
"w  c #615956",
"e  c #695C54",
"r  c #625D59",
"t  c #6E5D58",
"y  c #725750",
"u  c #735851",
"i  c #715E59",
"p  c #496E4B",
"a  c #55654A",
"s  c #477A4E",
"d  c #53734F",
"f  c #5D625E",
"g  c #5B6D5E",
"h  c #4B7657",
"j  c #537557",
"k  c #62634C",
"l  c #636056",
"z  c #61615F",
"x  c #6C625A",
"c  c #6C6C5F",
"v  c #71665B",
"b  c #74695D",
"n  c #6F7A58",
"m  c #7D7559",
"M  c #5E6464",
"N  c #5E6B62",
"B  c #5F6769",
"V  c #5B6A6E",
"C  c #5D6C70",
"Z  c #626463",
"A  c #6C6462",
"S  c #636A65",
"D  c #6B6B65",
"F  c #636768",
"G  c #696668",
"H  c #636B6D",
"J  c #6B6B6B",
"K  c #756661",
"L  c #766C64",
"P  c #796B64",
"I  c #726E6C",
"U  c #747167",
"Y  c #73736C",
"T  c #7B726C",
"R  c #656E70",
"E  c #696F71",
"W  c #667173",
"Q  c #6A7375",
"!  c #737373",
"~  c #7C7674",
"^  c #757B76",
"/  c #7A7C77",
"(  c #747A7B",
")  c #7B7C7A",
"_  c #847D6D",
"`  c #807473",
"'  c #897773",
"]  c #837E7A",
"[  c #448455",
"{  c #488958",
"}  c #5B8C5E",
"|  c #638757",
" . c #669F5E",
".. c #668969",
"X. c #7D8369",
"o. c #699968",
"O. c #728977",
"+. c #7C817A",
"@. c #73A667",
"#. c #839166",
"$. c #869869",
"%. c #8C9B6B",
"&. c #85847C",
"*. c #8B857E",
"=. c #86887D",
"-. c #8D8C7E",
";. c #918C7E",
":. c #899970",
">. c #949879",
",. c #8CA66C",
"<. c #83B76D",
"1. c #90B26E",
"2. c #8CA070",
"3. c #89A975",
"4. c #9AA47C",
"5. c #85B373",
"6. c #8AB777",
"7. c #A1B979",
"8. c #9AC676",
"9. c #A2C174",
"0. c #A6C479",
"q. c #A8C57E",
"w. c #ADCA7C",
"e. c #787F81",
"r. c #7C8281",
"t. c #7FA38A",
"y. c #878682",
"u. c #848585",
"i. c #8D8D81",
"p. c #878788",
"a. c #8A8A8A",
"s. c #948C8B",
"d. c #829988",
"f. c #949282",
"g. c #9A9683",
"h. c #9D9A85",
"j. c #94948B",
"k. c #9D9A8C",
"l. c #8F9A92",
"z. c #959495",
"x. c #9E9B92",
"c. c #979798",
"v. c #9B9B9B",
"b. c #A09C87",
"n. c #A39D8A",
"m. c #A09A98",
"M. c #85A68E",
"N. c #95A38A",
"B. c #9CA48F",
"V. c #9EBC87",
"C. c #8CAD93",
"Z. c #9FA996",
"A. c #98B399",
"S. c #A3A28B",
"D. c #A2B783",
"F. c #AABE87",
"G. c #A0AC90",
"H. c #A1B790",
"J. c #AEBD99",
"K. c #B1BE9C",
"L. c #9F9FA0",
"P. c #A29FA2",
"I. c #A4A3A4",
"U. c #A9A6A3",
"Y. c #A6ADA6",
"T. c #A7A7A8",
"R. c #ABAAAB",
"E. c #ABB5A1",
"W. c #A9B8A5",
"Q. c #B1BAA4",
"!. c #B3B9AC",
"~. c #AFAFB1",
"^. c #B3B3B4",
"/. c #B6B8B9",
"(. c #BBBBBC",
"). c #A9C184",
"_. c #ADC983",
"`. c #AEC191",
"'. c #B4C69B",
"]. c #B7C6A4",
"[. c #BBC1B1",
"{. c #BEBEC0",
"}. c #C1BEC1",
"|. c #C3C3C4",
" X c #C6C6C8",
".X c #C8C7CD",
"XX c #C8C8CA",
"oX c #CFCFD0",
/* pixels */
"@ 1 Q , & H r $ f Z & & & M H W 3 % % % X r W V H W r % X $ $ % % O % % o O o - ",
", 1 Z x c ^ Y v Y ^ b x 1 U ^ ) Y b b b v Y +.^ ^ ) U v v v x v b x x w x b v 9 ",
"C M % _ g.g.h.b.g.g.n.=.W i.g.g.h.h.h.h.h.h.h.g.g.g.g.g.h.h.h.h.g.g.=.W ;.b.g._ ",
"1 x _ ;.g./ ^ / / ^ / Q R ^ / ^ / +.g.h.k.j.y.&.+.+./ ^ / &.h.&.^ ) ^ H ^ +.h.&.",
"% b g.h.f.H H H H H B B H H W Q ( +.j./ ! J J F ( e.( ( H Y f.^ V W W H H E f._ ",
"$ v g.+.Q W W W Q H & : e Q ^ ! Q ( ^ B M F J J J I E ! L D Q W Q W R H H Q Q Z ",
"$ v g.^ R R R R M f : c } 3.o.{ ..P.l.{ [ d.I.Y.z.Z r Z J G ! S M H R H W R Z 1 ",
"$ v b.^ H H H R + k $.2.5.H.A.C.W.|./.M.t.Y.^.^.R.c.z.z.! 3 J D = S W W Q H : & ",
"$ v k./ H R f * a %.9.0.].(. X XXX X X}.}.{.(.{.(.^.^.^.N.%...j f > < W R H Z 1 ",
"$ v k.+.Q Q <   n 9.q.'. X X X X X X X X X X X X|.(.^.^.J._.<.} G l ; Q R H W Z ",
"% b g.f.-.Q f = #.0.'. X X X|.XX X X X X X X X X X X X(.^.K._.1.g Z D ;.^ W Q Z ",
"% b g.;.&.Q f #.9.'. X X X XXX.XXX X XXX.X X X.XXX X X X X(.K.3.[ S _ g.^ R S 3 ",
"X v g./ R H z 2.0.]. X X X X|.}.}.|. X|.}.}. X|.}.|.}. X X(.^.C.{ S Y k.^ M & % ",
"$ v g.^ H 3 > %.'.|. X XXX|.c.) ) z.^.p.] e.R.T.e.) p./. X(.^.E.3.S J k.^ M & % ",
"$ x g.^ Z : - %.].XX X XXX|.u.u.p.) (.L.J a.(.c.! a.! ^.XX|./.Q.7.D J k.^ M : % ",
"$ v g.^ B H < X.[.(.^. XXX|.p.) c.T. X{./ I.oXc.u.^.~ ~.XXXX{.!.G.J F r.W H & & ",
"$ b g.^ H S ; U }.~.I.|..X.Xp.! z.R.XX}.) T.oXc.! z.c.(.XX X(.^.I.J J u.Q H w : ",
"% b S.+.H 7 O Y {.~.I. X.X}.p.v.L.e.}.T.E z.}.c.G a.}.XX X X{.^.I.J J x.^ B H 3 ",
"& x +.Q H & O U (.^.T.|.XX|.z.Z.I.a.^.u.! ) T.L.p.(.XX X X X(.^.I.J J x.^ R W M ",
"% w Q H M & O L (. X|. X X X{.{.|.{.|.(././.|.|.{. X XXX X(.^.^.I.J G n.+.W W Z ",
"& b ;.^ R H Y v.|. X X X X X X XXXXX XXXXX X X X X X X X X(.~.^.^.v.J ^ r.W W Z ",
"% x -.^ J H v. X X X X X X X X X X X X X XXXI.u.a.a.u.a.^.{.R.I.^.~.! Z ( W W M ",
"% w V W H 7 m. XXX X X X X X X X X X X X XXX^.c.v.c.v.v.(.}.I.v.T.T.! Z ( R E Z ",
"% x =.Q H : m. X{.^.^.(. XXXXX X X X X X XR.v.I.I.L.L.P.(.(.I.z.m.I.! Z ( W R Z ",
"- b S.^ H c U.}.Y.z.c.m./.(.|. X X X X X|.z.) +.) ) ) r.^.{.T.v.v.I.! Z ( Q H z ",
"M ~ h.( ^ D.[.~.v.c.z.v.I.I.(.XX X X X XXX|.|.|.{.|.{.{.}.(.^.R.U.Y.! Z ( R H M ",
"V ^ h.+.^ V.J.~.~.U.c.I.(.{.|. X X X X X|.|. X X X X X(.^.^.^.~.^.R.! Z ^ R R M ",
"V ^ h.+.H L 4.E.^.^.R.^.^.(.^.^.(. X X|.T.P.R.^./.^.^.^.^.~.^.^.!.D.U Z ( R E Z ",
"2 U h.-.&.>.7.).W.^.Y.' ' ' T L s.^.R.R.v.z.v.I.U.^.^.^.^.^.E.`.V.o.N F Q R R Z ",
"% b n.h.S.q.w.w.V.O.' 0 8 8 6 4 t ` L T z.v.B.B.v.I.T.~.s.` 4.8. .p h N ( R R z ",
"% v k.n.V.5.<.,.| > 6 6 0 0 y 8 5 4 # & O.N.F.).Z.z.y.s.b o m $.d - p g ( E R z ",
"$ v k.S.:.s s > # 4 4 4 6 0 0 8 6 y 8 4 d @.6.1.>.] 6 8 y y y 0 y 6 4 w G ( Z 3 ",
"$ v g.i.q @ @ # 6 y 8 4 4 8 y y y y 8 8 8 j [ d 6 u u y 0 8 0 0 0 5 8 5 4 T q % ",
"% v g.*.5 o # 6 y y y 8 8 8 y y y 8 4 4 0 9 9 8 8 y 0 9 4 4 6 0 u 0 0 8 4 P e % ",
"% b j.i # 8 8 0 y y y 0 0 5 # 4 6 8 8 6 4 4 6 0 0 0 4 o # o o 5 0 0 0 5 o 7 K 7 ",
"% b *.o @ 4 4 4 5 5 5 4 4 # # @ % 5 6 5 # @ 4 4 4 5 % o o % # % 5 4 4 % # . A A ",
"o b n.&.) ) ) ) ] y.*.] ) ] *.*.y.y.*.] ) &.y.) ] *.*.*.*.*.*.&.~ ~ ) ) ] ~ ^ z ",
"% b g.+.Q E Q Q Q Q R R H E R E Q Q R E E E Q E R H W W Q Q Q Q Q W R H Q E : & ",
"% b h./ R E E Q E R F R H H H H E R z z F E W R H H R H W R R Z z H H H Z r & % ",
"& b S./ R Q Q Q R R R R R H R R W E q 1 R E Q E R Q Q Q W H R , & Q W R w 4 & % "
};
