/* XPM */
static char *result[] = {
/* columns rows colors chars-per-pixel */
"40 40 134 2 ",
"   c #141710",
".  c #171911",
"X  c #1A1C13",
"o  c #1E2116",
"O  c #1F2318",
"+  c #202217",
"@  c #222519",
"#  c #28271A",
"$  c #26281B",
"%  c #2A2A1E",
"&  c #2E2E21",
"*  c #2F3123",
"=  c #333324",
"-  c #383626",
";  c #3A3926",
":  c #333329",
">  c #373829",
",  c #3F3C2B",
"<  c #443B26",
"1  c #413E2E",
"2  c #423F30",
"3  c #44412F",
"4  c #54462E",
"5  c #5D4B2F",
"6  c #454232",
"7  c #4A4633",
"8  c #4D4936",
"9  c #4E4B38",
"0  c #524631",
"q  c #524C36",
"w  c #5B4D34",
"e  c #52473C",
"r  c #544B3D",
"t  c #5C5137",
"y  c #565239",
"u  c #5E5238",
"i  c #604E33",
"p  c #635135",
"a  c #68573A",
"s  c #645C3E",
"d  c #6C5B3D",
"f  c #715D3C",
"g  c #75613E",
"h  c #4B4D43",
"j  c #574741",
"k  c #584740",
"l  c #574A41",
"z  c #5B4B45",
"x  c #5C4E48",
"c  c #4F5148",
"v  c #555047",
"b  c #5E5440",
"n  c #54554C",
"m  c #5E524B",
"M  c #57584E",
"N  c #5C5B4D",
"B  c #535752",
"V  c #5C5551",
"C  c #575B55",
"Z  c #5C5B55",
"A  c #565C59",
"S  c #5C5D5A",
"D  c #645E42",
"F  c #6E5F40",
"G  c #60524D",
"H  c #615E4D",
"J  c #615651",
"K  c #615A56",
"L  c #6A5D53",
"P  c #615D5A",
"I  c #5B615E",
"U  c #666043",
"Y  c #696344",
"T  c #64614F",
"R  c #6E6848",
"E  c #746241",
"W  c #796541",
"Q  c #746C48",
"!  c #7B734F",
"~  c #656251",
"^  c #6A6653",
"/  c #6E6A57",
"(  c #61605F",
")  c #6C625A",
"_  c #71665B",
"`  c #74695D",
"'  c #7E7651",
"]  c #5E6363",
"[  c #5F6769",
"{  c #5C696D",
"}  c #5D6C70",
"|  c #626463",
" . c #616865",
".. c #696C65",
"X. c #616769",
"o. c #636B6D",
"O. c #776C60",
"+. c #796C60",
"@. c #6C736F",
"#. c #75736B",
"$. c #797768",
"%. c #7B7B6D",
"&. c #646E70",
"*. c #686F71",
"=. c #667173",
"-. c #6A7374",
";. c #6E7879",
":. c #727773",
">. c #757A76",
",. c #797D76",
"<. c #777D78",
"1. c #797E79",
"2. c #82794F",
"3. c #807752",
"4. c #847B53",
"5. c #897E53",
"6. c #847D6D",
"7. c #7D817A",
"8. c #8A8053",
"9. c #86826F",
"0. c #868473",
"q. c #898572",
"w. c #8E8974",
"e. c #84867C",
"r. c #87897E",
"t. c #8D8C7E",
"y. c #918E7E",
"u. c #95907D",
"i. c #8D8D80",
"p. c #949282",
"a. c #9A9683",
"s. c #9E9A86",
"d. c #A09C87",
"f. c #A49E8A",
/* pixels */
"k Z -.V z &.( j ( [ z z x | X.=.P z z z j P =.{ X.=.P z j j j z z e k x z k z z ",
"V Z X.) _ <.#.) #.>.` ) K #.>.<.#.` ` ` _ #.7.>.<.1.O._ _ ) _ _ _ _ L P ) _ _ L ",
"} ( z 6.a.s.s.d.a.a.d.r.*.i.a.a.s.d.s.s.s.s.s.s.a.s.a.a.d.d.s.a.a.s.e.=.y.d.a.6.",
"Z ) 6.y.a.,.>.,.>.,.,.;.&.>.,.<.<.7.p.s.d.t.7.<.<.<.,.>.>.e.s.e.,.<.>.&.>.1.s.6.",
"z ` a.s.i.*.X.X.X.X.X.[ X.o.&.[ o.-.r.u.a.7.&.X.X.o.&.X.X.:.u.>.X.=.=.o.{ @.a.6.",
"k _ a.1.-.-.*.-.-.o.V m G *.o.x | -.-.;.-.=.o.K J G | o.G P -.-.=.=.=.{ o.*.-.X.",
"j _ s.<.&.=.*.&.] Z l r r S S l M ] S A A A S v z e n A l v A S [ o.&.o.*.&.| K ",
"j _ d.>.{ X.&.&.h 2 9 7 1 8 9 9 q q 9 8 3 7 q 9 7 1 2 2 , 1 1 7 y X.=.&.-.*.x z ",
"j _ d.<.o.=.I h : $ = = & & & & & & = = # % & = * # & * * * * = > h A =.=.o.| K ",
"j _ d.1.-.-.A , @ . @ @ O X . . . . O O X . . @ @ . X @ @ @ @ @ $ ; c -.&.o.-.| ",
"z _ s.p.t.;.C , @ . X X X X . . X @ $ @ @ @ @ X . . @ # @ X     X - N u.>.=.-.X.",
"z ` s.i.e.=.A 3 $ X X X X X X X X @ X @ O @ @ X . . X @ = - - - ; 1 T a.>.&. .S ",
"j _ a.,.*.&.A 8 * @ @ $ @ @ @ $ O . . . . . . . . .   + 5 F 3.4.2.q ^ a.:.X.x x ",
"j _ a.,.X.P l 6 & X @ O X @ @ $ o . . X @ X . O +     + i E 5.5.! 7 T s.>.| x r ",
"j _ a.:.[ J j , @ X @ O X @ @ @ X . X X # X . # # + + # p W 5.4.! 3 H u.>.X.m z ",
"j _ a.:.X.X.B , $ O X X @ X X X X . O @ X . X 4 a R Q Q a F 4.4.2.q M *.-.X.m z ",
"z ` a.>.X.X.n 3 * @ X O @ o X . X X $ @ X X X i E 4.5.4.a F 4.5.2.q M :.@.o.P m ",
"z ` d.7.o.G l 8 * @ @ @ @ # @ . X # @ @ @ X . w F 3.3.' a E 8.8.2.3 T s.>.o.o.( ",
"z ) e.-.X.x e 3 $ o @ $ @ o o o X @ < 7 y y q a E 3.3.' a R 4.5.! 3 T s.>.*.=.I ",
"x K -.o.X.m 9 3 @ X @ @ @ X . # + . i W 4.4.4.f E 3.4.' a F 3.3.! 3 N a.>.=.=.| ",
"z _ p.>.*.o.Z 7 & @ @ @ # .   .   . w g 5.8.5.d E 5.3.3.F W 5.4.! 3 T a.7.=.=.| ",
"z _ r.>.o.*.Z 8 & O @ @ + % & = = - i E 8.5.4.d E 5.4.3.f E 5.5.! 6 T p.>.=.=.( ",
"x V X.=.o.G l 8 $ X @ o . 4 d ' ' ' a F 5.4.3.a F 3.3.3.F E 3.5.2.q ^ a.:.o.=.| ",
"z ) e.;.X.m r 8 % X @ o . 4 E 4.4.4.a F 4.4.' a F 3.4.3.d E 5.5.' y H 7.-.=.*.| ",
"x ` f.<.[ G z 8 = $ % $ + 5 E 5.4.3.a F 3.3.3.a F 3.4.5.a E 5.5.2.y n =.=.&.o.I ",
"| >.s.<.&.o.C 1 0 u Q Q Y a d 4.4.' a f 5.4.3.f E 4.4.3.f W 5.5.' 7 c =.&.o.*.( ",
"[ >.s.1.&.o.M 3 w f 8.8.4.F a 4.4.4.d F 5.4.3.f E 5.4.3.f W 5.5.! 3 c 7.=.{ &.( ",
"{ >.s.7.X.m r 8 u d 5.8.8.d d 8.8.4.d F 5.8.5.a E 5.4.3.f W 5.5.! 3 T s.>.o.=. .",
"Z #.s.i.e.| n 6 p f 4.8.8.d d 4.5.5.F F 5.5.3.f E 5.5.3.f E 4.5.' 7 N e.-.o.o.| ",
"z ` s.f.a.;.A < p f ! 4.8.f d 3.4.5.a F 5.4.3.f W 5.5.4.a E 3.5.' y M -.*.o.o.| ",
"z _ s.s.p.;.Z , p g 4.8.5.d d 4.5.5.d F 5.5.4.f E 3.5.4.F E 3.3.' 8 ~ y.>.&.o.( ",
"j _ s.p.t.-.C , i g 5.8.8.f f 5.8.5.d F 5.5.5.a F 4.5.4.f E 3.4.' 9 ^ a.7.o.| P ",
"j _ a.<.&.&.B , w F 8.8.8.W g 8.8.8.g f 4.4.5.d E 8.4.' d F 4.5.4.q ^ s.7.o.m z ",
"z _ a.>.&.&.X./ b t U U D p u s s s w y U U s q w Y Y D q q D D D ` $.7.;.X.v z ",
"z _ a.>.X.*.1.s.~ 9 9 7 , 9 9 6 1 6 6 6 9 6 , , 6 9 9 9 6 7 9 2 9 u.e.X.o.] z z ",
"z _ s.>.} &.-.;.0.w.w.#.] %.q.0.0.9.9.%.] %.q. ...w.w.w.q.q.q...I @.-.=.&.X.X.P ",
"j _ s.<.o.&.=.=.i.p.p.7.{ r.p.p.p.u.i.e.-.7.p.-.;.p.p.p.p.p.p.>.o.{ &.=.&.{ X.P ",
"z _ a.,.&.*.=.=.=.-.&.o.X.&.&.X.*.-.=.o.o.=.=.o.o.X.&.o.-.-.-.=.=.o.o.&.=.o.G x ",
"z ` d.,.&.*.=.=.=.&.o.o.X.{ o.o.o.=.( ( o.&.=.&.&.&.&.&.=.&.&.X.( X.&.X.| P x z ",
"x +.f.,.&.=.-.-.&.&.&.&.&.&.&.&.=.;.J V &.=.=.=.=.=.=.-.&.&.&.V x -.-.&.J G z z "
};
