/* XPM */
static char *result[] = {
/* columns rows colors chars-per-pixel */
"40 40 189 2 ",
"   c #110E0D",
".  c #181813",
"X  c #231D1A",
"o  c #1D2314",
"O  c #24201E",
"+  c #2C341D",
"@  c #2A2622",
"#  c #342B27",
"$  c #2C3321",
"%  c #2F3822",
"&  c #3B322C",
"*  c #333929",
"=  c #323532",
"-  c #393A35",
";  c #463A35",
":  c #36431F",
">  c #374224",
",  c #384524",
"<  c #3B4629",
"1  c #3E492A",
"2  c #3C4336",
"3  c #414D2D",
"4  c #47562D",
"5  c #484738",
"6  c #54443E",
"7  c #495634",
"8  c #4A523B",
"9  c #4E5A3A",
"0  c #51513D",
"q  c #525B3B",
"w  c #4F612E",
"e  c #55643C",
"r  c #5B6C3D",
"t  c #3E3D40",
"y  c #413F45",
"u  c #7A365A",
"i  c #3F4540",
"p  c #444945",
"a  c #494E45",
"s  c #474C4B",
"d  c #564741",
"f  c #564942",
"g  c #5B4B44",
"h  c #514C4B",
"j  c #5D4F49",
"k  c #4D5642",
"l  c #5B5546",
"z  c #545C43",
"x  c #5E514B",
"c  c #545D4B",
"v  c #4F4C52",
"b  c #4F5452",
"n  c #5C5653",
"m  c #5F5855",
"M  c #54575A",
"N  c #5D5C5A",
"B  c #604F48",
"V  c #62544C",
"C  c #655A4D",
"Z  c #6C4F51",
"A  c #76485A",
"S  c #615A56",
"D  c #6C5E54",
"F  c #615D5B",
"G  c #566143",
"H  c #586345",
"J  c #5D6D41",
"K  c #5B654B",
"L  c #5F7142",
"P  c #5C6553",
"I  c #5C625B",
"U  c #656948",
"Y  c #637446",
"T  c #667945",
"R  c #64734C",
"E  c #6A7A4D",
"W  c #686757",
"Q  c #6B635B",
"!  c #616A5A",
"~  c #726256",
"^  c #71665B",
"/  c #74695D",
"(  c #6B7854",
")  c #787A5C",
"_  c #724560",
"`  c #76586A",
"'  c #5D6464",
"]  c #5F6568",
"[  c #5D6B6F",
"{  c #5D6C70",
"}  c #626464",
"|  c #626A64",
" . c #626768",
".. c #636C6E",
"X. c #68686D",
"o. c #736D65",
"O. c #766D67",
"+. c #6A716A",
"@. c #777065",
"#. c #74726A",
"$. c #656E71",
"%. c #696F71",
"&. c #796F77",
"*. c #677173",
"=. c #6A7374",
"-. c #6F787A",
";. c #737772",
":. c #757B76",
">. c #797D76",
",. c #757C79",
"<. c #787E79",
"1. c #803F5F",
"2. c #893966",
"3. c #804F61",
"4. c #97476D",
"5. c #94596F",
"6. c #9B4774",
"7. c #A34E79",
"8. c #A6577A",
"9. c #B2587F",
"0. c #847B6D",
"q. c #816F74",
"w. c #807977",
"e. c #6F8152",
"r. c #738456",
"t. c #768957",
"y. c #75845B",
"u. c #77895A",
"i. c #7A8C5C",
"p. c #7C8767",
"a. c #7F9161",
"s. c #7C8073",
"d. c #7C817A",
"f. c #848C6A",
"g. c #849566",
"h. c #879968",
"j. c #8A9C6C",
"k. c #848672",
"l. c #83857B",
"z. c #86887D",
"x. c #8C8B7E",
"c. c #938D7C",
"v. c #8D9B73",
"b. c #95947C",
"n. c #93A474",
"m. c #97A877",
"M. c #9AAC7B",
"N. c #9FB17F",
"B. c #BA5F88",
"V. c #B56486",
"C. c #C57393",
"Z. c #7E8184",
"A. c #8E8E80",
"S. c #918F80",
"D. c #959382",
"F. c #9A9683",
"G. c #9E9A86",
"H. c #999D88",
"J. c #A09C87",
"K. c #A29E89",
"L. c #9DA886",
"P. c #9FB080",
"I. c #A3AB87",
"U. c #A4B584",
"Y. c #A7B887",
"T. c #A6B58B",
"R. c #ABBB8B",
"E. c #B0BF8F",
"W. c #A6AB95",
"Q. c #B0C08F",
"!. c #B5C594",
"~. c #B8C897",
"^. c #B7C698",
"/. c #BBCB9B",
"(. c #BECCA1",
"). c #C0CEA3",
"_. c #C3CFA8",
"`. c #C5D2AB",
"'. c #C8D3AE",
"]. c #CAD4B2",
"[. c #CFDAB6",
"{. c #CAD5BA",
"}. c #CED8B8",
"|. c #D2DABD",
" X c #D6DDC5",
".X c #D9DFC7",
"XX c #D9DFC9",
"oX c #DAE1C7",
"OX c #DCE2CB",
/* pixels */
"g S ..n x $.N f ' } f g B } ..%.N d g g 6 N ..$.$.[ n 6 f f g f f g g B g g g g ",
"m m ' Q / <.#.^ #.;./ S S +.<.<.#.~ ^ ^ ^ #.:.>.<.:.o.^ ^ ^ / ^ ^ / Q S ^ / / D ",
"{ N f 0.F.F.G.G.J.J.F.l...x.F.F.J.J.D.F.F.F.b.F.F.G.J.G.J.J.J.J.J.J.A.*.c.K.F.l.",
"n Q 0.c.D.>.>.<.d.<.>.*...;.<.>.w.q.3._ A U E ( Y ( s.d.d.z.F.z.d.>.=...:.d.F.k.",
"6 / G.F.x.......$.*.$.$.$.$.%.A 1.6.9.9.2.l E.^.P.v.( P =.<.D.>.$.........-.c.0.",
"g o.G.<.%.....*.*.*.$.$.$.,.` 6.4.C.9.8.6.W  XOXXXXX(.g.P $.-.$...*.$.*.....*.} ",
"g / F.>.] ....*.$.*.$.$.*.&.8.V.2.u u 2.A H.oXOXXXOXoX`.y.c %...$.$.$.*.$...} m ",
"6 ^ F.:.....*.*.$.$.$.$.X.5.B.7.C.8.4.6.C {.OXoXOXOXOXOXT.E ! =.*.....*... .V g ",
"g / J.>.$.......$..... .P O.2.B.B.6.u Z W.OXOXOXOXOXOXOX].n.G %.*.....*.$...} S ",
"g / G.d.*.............c e K A 3.u A ! W.OXOXXXXXXXXXOXOX}.m.J c $...$.$.....=.} ",
"f / G.F.x.......$.X.o.K u.M.L.p.s.L.OXOXOXOXOX XXXOXXXOX].m.i.c ............*.} ",
"f / F.c.l.$.$.$.$.$.#.R a.P.(.OXOXOXOXOXOXOXOXOXOXOXOX.X).m.i.c ............ .F ",
"g / F.<.$.*.$.$.*.$.d.R a.N.~.[.OXOXoXOXOXXX XOXoXOXOX}.!.M.i.c *.=.$...$...n g ",
"g / G.:.$.*.$.$.*.*.d.T u.M.~.(. XoXOXOXOXOXXXOXOXoX|.(.~.m.J 8 ..*.$...$.X.B g ",
"d Q J.:...$.$...$.=.R 4 J m.Q.!.!._. X}.oXOXoX}.|.(.~.!.Q.n.q 1 c %.$.$... .j g ",
"g / F.<.$.$.....$.I f.R G g.U.~.!.!.!.^.'.}.'.^.^.~.!.~.P.a.z Y Y | *.*.$. .j g ",
"g / F.>...] ....=.s W.v.G g.m.Q.~.!.!.!.!.!.!.!.!.~.~.Q.n.g.q j.f.b $.*.*...m x ",
"g / J.>.[ ......-.s p.a.H g.g.j.M.!.!.!.~.!.~.!.!.Q.m.j.g.g.H a.K p ......*.$.F ",
"B Q d.=...*...*.*.] a 1 9 a.h.g.g.j.P.!.Q.Q.Q.Q.M.j.g.g.h.a.9 < a ..$...*.*...! ",
"g S =.*.*.=.*.*...*...* o e.h.g.g.g.h.h.j.h.j.h.h.g.g.h.h.Y o - ..*.$...*.*...} ",
"g / D.:.......*.*.*.*.] = e j.g.g.h.g.g.g.g.g.g.g.g.g.g.h.9 2 { *.*.*.*.*.=.*.} ",
"g / D.;.[ ..*.*.*.*.*.*.M % i.j.g.g.g.g.g.g.g.g.g.g.h.j.t.* ] *.*.$.$.*.*.*.*.} ",
"d S $.*.*.....*.*.*.*.....p 3 u.h.h.h.g.g.g.g.h.h.h.g.r.< p $.$.....$...%.*.*.} ",
"6 F z.-...*.*.*.*...*...$...= o 7 r.g.g.h.h.h.g.a.e.5 o i ....$.$.$.$.$.$.$.*.} ",
"f / K.:...$.*.$.........$.! K 8 + + : 9 E t.e.9 , % $ 8 P | ..*.$.*.*.*.$...$. .",
"' :.J.:.......$.....$.$.I p.R.n.n.f.8 2 e T e 2 8 a.n.m.Y.y.| ..$...$.*.$.......",
"[ <.J.:.$.$.......$.*...K M.~.m.E.).[.!.M.n.M.~.}.(.R.m.~.n.K | ' ....$.$.$.$.{ ",
"$.d.G.<.$.$.$...$.$.-.P J j.n.t.M.R.XX`.U.R.U.'.oXT.M.r.n.j.J k j  .....$.$.$.$.",
"N #.G.A.d.*.=...*.*.,.H t.h.g.G g.M.v.T.R.T.R.U.v.N.y., g.h.( z O.....$.$.$.$. .",
"6 / K.G.D.=.$...$.$.,.k r t.L 3 r j.N.!.U.I.U.~.N.y.3 1 Y u.r l S.%.$.%.$.....! ",
"g / G.G.b.%...$.....$.c : w , > > R I./.I.G.b.f.f.f . * , w , P =.%.$.$.$.$.=. .",
"g / F.c.z.%.$.*.$.X...} 5 + a = & 6 C ) C @.6 6 6 C & - k + s *.$.$.$...$.$. .N ",
"d ^ F.:.$.$.$.*.*.%...$.%.h #.y ; ~ ~ V B 6 B ~ ~ C ; h Z.M =.$.$...$.$.$. .g g ",
"d ^ F.:.$.*.*.*.$.$.[ $.$.} F = O D C ; ; 6 6 B 6 6 & t -.$.$.$.$...$.$.=. .g f ",
"d ^ F.<.$.*.$.$.$.....$.$.$.=.M ; V C f O # # X & d & v $...$.$.*.*.*.*.*...j g ",
"d ^ G.<.$.$.$...........$.X.$.-.m g ~ ) 0 .   ; ; @ @ ,.....$.$.$.*.*.*.*.$. .N ",
"d / G.<.$...............$.....$. .0 U ) q 8 - @ 0 . s $.$.$.$.$.$.$.$.$.$.$. .F ",
"d ^ F.<.$...[ $.[ ....[ $.[ ......3 t.Y.Y k *.] +...=.*.[ $.%.$.....$.$.$.$.V g ",
"f ^ F.<.$...$.$.X...$.$.$.$.$.$.$.] W #...| $.$.$.$.$.*...$.$.} F $.$.$.} F g j ",
"g @.K.l.$.$.$.=.=.*.$.*.*.=.=.%.%.$.n n $.$.=.$.$.$.$.=.$.$.=.F x %.*.=.m g B B "
};
