/* XPM */
static char *result[] = {
/* columns rows colors chars-per-pixel */
"40 40 216 2 ",
"   c #0B0A0D",
".  c #161B0F",
"X  c #131215",
"o  c #241D1B",
"O  c #1B220F",
"+  c #1D2412",
"@  c #242C16",
"#  c #282A1C",
"$  c #2F371F",
"%  c #292D20",
"&  c #342F26",
"*  c #2E3524",
"=  c #2F332E",
"-  c #33362D",
";  c #363829",
":  c #2E3130",
">  c #353834",
",  c #3C3F3B",
"<  c #453833",
"1  c #4C3F3A",
"2  c #3D4927",
"3  c #3E4437",
"4  c #424E2E",
"5  c #45542D",
"6  c #4B5B2D",
"7  c #474935",
"8  c #40423D",
"9  c #4D433A",
"0  c #454C39",
"q  c #54453F",
"w  c #455131",
"e  c #4A5435",
"r  c #4C533B",
"t  c #4E5A39",
"y  c #515D37",
"u  c #515E3C",
"i  c #4D602E",
"p  c #55633D",
"a  c #58683D",
"s  c #3D3F41",
"d  c #7B355A",
"f  c #464845",
"g  c #564741",
"h  c #574942",
"j  c #5B4B44",
"k  c #5E4F49",
"l  c #4C5344",
"z  c #575747",
"x  c #5E514B",
"c  c #565E4A",
"v  c #4C4F51",
"b  c #5C5653",
"n  c #5F5855",
"m  c #54595C",
"M  c #5D5C5B",
"N  c #664D4C",
"B  c #63544D",
"V  c #635C4D",
"C  c #6F4F56",
"Z  c #78465C",
"A  c #605550",
"S  c #615A56",
"D  c #6C5D54",
"F  c #615D5A",
"G  c #566242",
"H  c #586246",
"J  c #5E6D42",
"K  c #5B634C",
"L  c #5E694B",
"P  c #5F7043",
"I  c #5D635C",
"U  c #636A49",
"Y  c #627444",
"T  c #65744D",
"R  c #677849",
"E  c #6B7C4C",
"W  c #676856",
"Q  c #6B635B",
"!  c #71665A",
"~  c #766659",
"^  c #74695D",
"/  c #657251",
"(  c #6B7552",
")  c #6C7A53",
"_  c #74795A",
"`  c #754E65",
"'  c #5D6363",
"]  c #5D6B6F",
"[  c #5D6C70",
"{  c #626464",
"}  c #656E64",
"|  c #6A6C65",
" . c #626768",
".. c #636C6E",
"X. c #6A6B6B",
"o. c #766E63",
"O. c #6A7168",
"+. c #777267",
"@. c #75736B",
"#. c #787F6A",
"$. c #656E71",
"%. c #686F70",
"&. c #706971",
"*. c #677173",
"=. c #6A7374",
"-. c #6E7874",
";. c #6F7679",
":. c #727574",
">. c #757B76",
",. c #797D76",
"<. c #707578",
"1. c #747B7A",
"2. c #787E79",
"3. c #8C3B68",
"4. c #80485F",
"5. c #94456A",
"6. c #93566F",
"7. c #974372",
"8. c #A14C79",
"9. c #A65679",
"0. c #847B6D",
"q. c #9A6277",
"w. c #847B7A",
"e. c #6E8151",
"r. c #758657",
"t. c #7A8B5C",
"y. c #7E905F",
"u. c #7A8367",
"i. c #7E8C64",
"p. c #7E8277",
"a. c #7C827B",
"s. c #888868",
"d. c #829364",
"f. c #859866",
"g. c #849369",
"h. c #8A946C",
"j. c #879A69",
"k. c #8A9B6B",
"l. c #96956C",
"z. c #828373",
"x. c #868F73",
"c. c #83857B",
"v. c #86887E",
"b. c #8C8B7E",
"n. c #928E78",
"m. c #8B9473",
"M. c #8C9B71",
"N. c #8A927B",
"B. c #949373",
"V. c #959879",
"C. c #8FA077",
"Z. c #93A374",
"A. c #96A777",
"S. c #9BAD7C",
"D. c #9FB07F",
"F. c #AF5E82",
"G. c #B45D82",
"H. c #B75D88",
"J. c #B76687",
"K. c #C27091",
"L. c #7C8281",
"P. c #838585",
"I. c #8C8D80",
"U. c #918F80",
"Y. c #959381",
"T. c #9A9683",
"R. c #979D87",
"E. c #9E9A86",
"W. c #A09C87",
"Q. c #A29E89",
"!. c #9AA584",
"~. c #9CAB83",
"^. c #9DA58B",
"/. c #A0AF84",
"(. c #A8AB89",
"). c #B7AD8C",
"_. c #A3B384",
"`. c #A5B28B",
"'. c #ABB58E",
"]. c #A9BA88",
"[. c #ACBD8A",
"{. c #A5AC94",
"}. c #A5A898",
"|. c #ADB796",
" X c #ADBA94",
".X c #B1BC95",
"XX c #B2BD9D",
"oX c #ADB1A3",
"OX c #B5BEA1",
"+X c #AFC18D",
"@X c #B0C18E",
"#X c #B3C493",
"$X c #B6C29C",
"%X c #BCCB9C",
"&X c #BAC6A4",
"*X c #BDCAA2",
"=X c #C4C997",
"-X c #C0CDA6",
";X c #C3CDAB",
":X c #C3D1A7",
">X c #C6D2AC",
",X c #C9D5AD",
"<X c #C9D3B6",
"1X c #CBD4B4",
"2X c #CDD7B6",
"3X c #CDD5BB",
"4X c #D8DFC8",
"5X c #E0DDCE",
"6X c #DCE2CB",
"7X c #E0E5CF",
"8X c #E3E6D1",
"9X c #EBE6D6",
"0X c #F3EAD3",
"qX c #FCF5DA",
"wX c #FFF8EA",
"eX c #FFFDF9",
/* pixels */
"j S ..n x $.M g I ' h j j { $.$.M q j j q n ..*.$.] b q g j j j j j j j j j j j ",
"n n { Q ^ ,.@.! @.:.^ F n @.>.2.@.Q ! ! ! +.>.2.>.>.+.! Q ! ! ! ! ^ Q S ! ^ ^ D ",
"[ M g 0.T.T.E.W.E.E.E.c...b.T.T.T.W.T.V.T.T.T.T.T.Q.W.W.E.E.E.E.W.W.I.%.I.W.T.c.",
"b Q 0.b.Y.p.>.,.p.p.,.O.] >.a.z.#.T T ( E V Z 4.Z w.w.w.a.c.E.b.2.2.:.$.>.c.T.z.",
"g ^ W.T.b.......$.*...] [ *.-./ r.M._.$X].k 3.G.G.6.d ` <.2.Y.>.$.] ....$.-.b.#.",
"j ^ E.,.$.....*.*.*.*.*.=.-.T k.:X6X6X8X3XB 8.8.F.K.7.5.` =.-.*.$.$.$.$.$.X.=.{ ",
"j ^ E.>.] ..$.*.*.*.$.*.a./ j.:X6X6X6X6X6XY.Z 3.d d 5.J.q.&.*...$.$.*.*... .Q M ",
"g ! T.>. ...$.*.*.*...] T t.&X6X6X4X4X6X6X*Xb 9.5.9.K.8.J.6.X.*.$.$.$.$.$. .j N ",
"j ^ E.>.$...........$.} Y A.1X6X6X6X6X6X6X6X}.C d 7.H.J.7.~ W %.*...$.*.$. .{ S ",
"j ^ W.2.*.$...] ....-.T t.S.2X6X4X6X6X6X6X6X6X^.W Z d d C L p c *.....*.$...*. .",
"g ^ W.T.b.X.....*...+.T y.S.2X6X6X6X6X6X6X4X6X7X6XR.u.u.!.A.r.c ............*. .",
"g ! E.U.c.$...$.*.X.@.T i.S.:X6X4X.X X X3X6X3X|. X$X6X6X:XS.t.c ......] $... .F ",
"j ^ T.2.$.*.$.*.*.*.a.R y.S.+X>X<XOX&X&X|.;X|.&X&XXX3X>X@XA.t.H *.*.$...*...B j ",
"j ^ E.>.$.*.$.$.*.=.a.P i.k.y.u.#.x.&X6X1X|.3X6X&Xx.#.u.d.k.a l *.=.$...$. .k j ",
"g ! W.>...$.$...*.-.T 6 P f.k.^.{.{.{.$X6X4X4X X/.}.{.^.j.y.t 2 c =.*..... .x j ",
"j ! T.2.$.$...] ..I g.T t ) G * % * T A.:X3X*XZ.L * % * G a w T ( W *.*.*. .x j ",
"N ^ T.>....... .=.f {.~.w U c X.P.M * k.%X#X%Xd.$ { P.! H J w '.}.f *.$.*...n x ",
"j ^ W.>.] ....] 1.f #._.e p B.0XeX5Xl.j.#X>X#Xd.l.8XeX9Xs.p t `./ s ....*.*...F ",
"j Q c.-...*.$.$.$.' 8 5 4 6 l.0XwXqX=XD.|.X.XX_.=XqXwX0Xs.5 4 5 f ..$...%.*...{ ",
"j S *.*.*.*.*.*...*.&.: O R ) V.).(.'.XXf   v XX).(.).B.) Y . > ..*.$.$.$.*...{ ",
"j ^ T.>.....*.*.*.*.=.' = p k.T p ) -XX.X 8 X p.*X( G E k.y 3 $.*.*.*.*.*.*.%.{ ",
"j ! Y.-... .$.*.*.*.*.=.m * R e.S.[.3X{.b.{.v.oX7X@XZ.E R ; ..*.$.$.*.$.*.*.*.{ ",
"g b $.*.*.] ..*.*.*.*.*.*.l O 5 ].-X:X,X:X#X,X,X>X*XD.2 + f *.$.......$.%.*.*. .",
"g Q v.;...*.*.*.*.*...[ *.:.> . u h.[.@X#X#X#X+X[.g.0 X f 2.$.$.$.$.$.$.$.%.%. .",
"h o.W.>...*.*.*...]  .$.| L U 0 + @ 2 G / L / p 2 @ + r / L } =.$.*.*.*.$.$.$. .",
"' :.E.>.........$.$.*.} / `.>XM.Y a 3 + O + + # 3 a R Z.;X~.T { $.$.$.*.........",
"] >.E.2.$.......$.$.1.H d.,X6XS.f.].#XZ.k.t.M.Z.@X_.f._.8X>Xi.l ' ....$.$.$.$.] ",
"$.a.E.2.$.*.$...$.$.L.K g.:X*Xt.y.D.*X3X XM..X3X%XD.t.t.*X%Xd.u k } ....$.$.$.$.",
"M @.W.I.a.*.*...$.*.L.K d.[.d.6 _ S.S.{. XV. X`.~.S.( 6 f.[.i.z +.....$.$.$.$.} ",
"q ! E.E.T.=...] *.*.=.U m.Z.d./ y d.'.$XB._ A.&X'._ e ( g.A.h.L w.*...*.$...] { ",
"j ^ E.E.n.%...*.....: m.2X,X!.!.; 1 ! M.B.m._ T V < - ^.^.,X2Xu.f <.$...$.$.=.{ ",
"j ^ E.Y.v.%.$.*.$...= m.>X&Xz.0 9 q q V ^ ~ z q q B 7 0 N.&X1Xi., ;.$...$.$. .M ",
"h ! T.>.] $.*.*.*.*. .l i.g.l o q ~ N g < < N D D B 1 X z g.i.8 ' $.$.*.$.{ x h ",
"h ~ T.>.$.*.*.*.*.$.*.M > - Q f # D ~ ~ V q g q q q ; 3 X.- , m $.$.$.*.*. .h j ",
"g ! T.2.*.*.*.$.......$.;.;.;.M < B 0.s.N < 1 1 1 q r | P.<.;.*.*.=.*.*.*...k j ",
"g ! E.2.$...$.$.........$.$.$.;.A q D s.x & # ; 7 & 8 a...$.$.$.$.*.*.*.*.*.' M ",
"g ! W.2.$......... .......] ..$...e U g.H 0 f % i @ v $...$.*.$...$.*.*.*.*.| M ",
"g ! T.,.$...........] ............e e.C.P K L.' } ' 1.*...$.*.$.........*...B j ",
"j ^ T.2.$.....$.$.....$.$.$.$.$.....Q { %.O.*.$...%.*.*...$.$.{ I ..$...{ n k j ",
"j o.Q.a.*.$.*.*.=.*.$.*.*.;.*.*.*.*.x n $.*.=.$.$...*.*.$.$.*.F B ..=.=.n j k B "
};
