/* XPM */
static char *result[] = {
/* columns rows colors chars-per-pixel */
"40 40 198 2 ",
"   c #0E0B09",
".  c #110E0C",
"X  c #0F1010",
"o  c #151512",
"O  c #191614",
"+  c #1B1A17",
"@  c #1D1C1A",
"#  c #231611",
"$  c #231913",
"%  c #2D1813",
"&  c #211F1B",
"*  c #281D1A",
"=  c #3A1915",
"-  c #23221D",
";  c #2C211D",
":  c #34241B",
">  c #3A261C",
",  c #3F2A1B",
"<  c #1F1F20",
"1  c #252522",
"2  c #2A2723",
"3  c #272927",
"4  c #2B2924",
"5  c #2C2D2B",
"6  c #342B24",
"7  c #3E2B21",
"8  c #322E2A",
"9  c #2F312C",
"0  c #32312C",
"q  c #3A332C",
"w  c #38382F",
"e  c #343535",
"r  c #373837",
"t  c #393934",
"y  c #373A3A",
"u  c #3B3C3B",
"i  c #5E1612",
"p  c #6C1C17",
"a  c #741E18",
"s  c #41250D",
"d  c #4E2F13",
"f  c #422C1E",
"g  c #513416",
"h  c #773E09",
"j  c #7F211B",
"k  c #653C1A",
"l  c #442E21",
"z  c #4C3426",
"x  c #4F3528",
"c  c #4C392C",
"v  c #513629",
"b  c #553A2A",
"n  c #433B35",
"m  c #4A3B34",
"M  c #433D39",
"N  c #573D38",
"B  c #7B420C",
"V  c #69431F",
"C  c #7B4310",
"Z  c #47423F",
"A  c #4F493F",
"S  c #5D4333",
"D  c #564539",
"F  c #55463D",
"G  c #5B423C",
"H  c #684524",
"J  c #6B492E",
"K  c #714922",
"L  c #7F562D",
"P  c #644533",
"I  c #6A4836",
"U  c #6A4E39",
"Y  c #714C36",
"T  c #66513F",
"R  c #69513D",
"E  c #7B523C",
"W  c #3F4241",
"Q  c #434545",
"!  c #454848",
"~  c #454949",
"^  c #4A4D4D",
"/  c #574741",
"(  c #554A44",
")  c #5B4B44",
"_  c #5E4F49",
"`  c #585046",
"'  c #56524E",
"]  c #5E514B",
"[  c #4A4F50",
"{  c #4D5252",
"}  c #525554",
"|  c #5C5653",
" . c #575957",
".. c #5D5955",
"X. c #545758",
"o. c #555A5B",
"O. c #5C5C5B",
"+. c #604F48",
"@. c #605143",
"#. c #6A5545",
"$. c #62554D",
"%. c #745642",
"&. c #795949",
"*. c #615650",
"=. c #615A55",
"-. c #685E57",
";. c #615D5A",
":. c #5F605F",
">. c #6A6057",
",. c #62615E",
"<. c #6B635B",
"1. c #7E6555",
"2. c #71665B",
"3. c #74695D",
"4. c #5B5F60",
"5. c #5C6364",
"6. c #5F6768",
"7. c #5E696B",
"8. c #5D6C70",
"9. c #626463",
"0. c #616768",
"q. c #636C6E",
"w. c #6B6B69",
"e. c #766E63",
"r. c #6F716C",
"t. c #797367",
"y. c #75736B",
"u. c #656E71",
"i. c #696F70",
"p. c #677173",
"a. c #6A7375",
"s. c #6C7679",
"d. c #737772",
"f. c #757A75",
"g. c #797D76",
"h. c #777D78",
"j. c #787E79",
"k. c #84231D",
"l. c #994D03",
"z. c #94500E",
"x. c #AB5A08",
"c. c #B16111",
"v. c #8A5C36",
"b. c #89613B",
"n. c #926133",
"m. c #B7732F",
"M. c #A56D38",
"N. c #C76A0B",
"B. c #865F4A",
"V. c #A35744",
"C. c #866146",
"Z. c #896242",
"A. c #98674A",
"S. c #856B5B",
"D. c #A97442",
"F. c #AC744C",
"G. c #B37348",
"H. c #AA7354",
"J. c #A97958",
"K. c #B57754",
"L. c #BC7D59",
"P. c #857369",
"I. c #847B6D",
"U. c #C37F58",
"Y. c #7C817A",
"T. c #BC8147",
"R. c #B3885D",
"E. c #868173",
"W. c #83857B",
"Q. c #86887D",
"!. c #8C8B7E",
"~. c #928E7E",
"^. c #92907F",
"/. c #A78573",
"(. c #B18871",
"). c #C4815A",
"_. c #CB845B",
"`. c #CA8861",
"'. c #D38C62",
"]. c #D8956C",
"[. c #CA9473",
"{. c #D99B76",
"}. c #E3996E",
"|. c #E99D6F",
" X c #E39C70",
".X c #E89F72",
"XX c #EEA173",
"oX c #F1A374",
"OX c #8C8C80",
"+X c #918F80",
"@X c #959282",
"#X c #9A9683",
"$X c #9E9A86",
"%X c #9D9A88",
"&X c #A09C87",
"*X c #A19D89",
"=X c #D8AC91",
"-X c #EBAF8C",
/* pixels */
") =.q.| ] u.;.( 5.5.) ) ) 9.q.p.O.F ) ) / ..u.u.u.8.} / / / ) / ( ( ) ) ) ) ) ) ",
"....5.<.3.g.y.2.y.d.<.-...r.f.g.y.>.2.2.2.e.d.h.h.h.e.3.2.2.3.3.2.3.2.=.3.3.2.>.",
"8.O./ I.$X#X$X&X$X$X#XW.q.!.#X$X&X&X#X#X&X#X#X@X#X&X&X%X&X&X#X&X$X$XOXp.OX&X#XW.",
"| <.I.~.@Xg.f.g.Y.Y.g.r.q.f.g.g.W.g.9.' } ' } ' ..d.OXj.j.Q.#XOXY.j.d.q.f.W.#XE.",
"( 3.%X#X!.q.q.q.p.p.q.q.q.p.u.p.! 5 < < @ @ @ < @ & u u.u.h.@Xf.p.7.q.q.u.d.^.I.",
") 3.&Xg.q.q.q.p.p.p.p.u.p.p.p.p.1 . 6 : =   $ > = O X 0.u.u.s.i.q.q.p.p.q.q.a.9.",
") 2.$Xf.q.q.u.p.p.p.p.q.q.p.q.s.< l _.U.L.A.F.U.`.v.O 5.u.u.u.q.p.p.p.p.q.q.,...",
"F 2.#Xd.q.q.u.p.p.p.q.q.q.q.q.s.F K.'.U.'.'.'.U.`.`.U 5.p.u.q.u.p.q.q.p.p.5._ ) ",
") 3.$Xg.q.q.q.q.q.u.q.q.q.q.p.s.1.`.Y P H.U.U.E S H.J.q.u.u.u.u.u.q.u.p.q.q.9.=.",
") 3.&Xj.p.q.q.q.q.q.0.q.q.p.p.p.%.-XS.I &.L.B.%.G =XJ.4.u.u.p.p.p.q.u.u.q.q.a.9.",
"/ 3.&X@X!.i.q.q.u.q.] ,.q.p.a.$.E -XS.U P.K.S.S.P =XH.G 5.7.q.0.0.7.q.u.q.q.a.9.",
") 3.$X+XW.a.q.:.q.p.]  .5.,.` b %.|.}.{.H.A.C.]. XoXH.S D U J U T U T ,.u.q.0.,.",
") 3.#Xt.` ` A t e ( H V V z.l.B Y XXXX.XA.l E ].oXoXF.S M.c.D.M.R.M.D.U 5.w.] ) ",
"/ 2.%XS.k d g 6 2 s l.l.l.x.N.x.K }..XK.z f f C.XXoXZ.L K.m.R.G.R.T.T.L O.q._ ) ",
"/ 3.%Xd.,.! + 2 t  .$.` @.K C h b [.oX'.K.V.F.)..X{.#.V Z.b.b.Z.n.n.v.R 5.0.$.) ",
") 3.#Xg.a.q.3 - 5 q.q.p.a.i.i.=.m I./.[.[./.(.[.(./.` D $.*.' ` D D ( q.p.q.] ) ",
") 3.#Xg.u.p.3 o @ { i.q.Q y ^ ^ 8 M M m D G G N N m 8 Q 9.;.9.u.p.p.s.u.p.q...] ",
") e.&Xg.q.p.3 - 1 X.0.0 - - - - 4 * O % p k.k.a i % O - 4 - - ! q.q.q.q.p.p.q.;.",
"+.-.W.a.u.a.5 @ 1 w.t - - - - - 1 O 2 t = p j j = t 2 & 2 - - r q.p.q.q.w.p.q.5.",
"_ =.a.p.p.p.X.O - 5 - - - + + @ - & + O . # = # . O O & - - - - ! p.p.q.p.p.u.9.",
") 3.@Xf.8.u.5.& - @ - + 1 X.e + 8 2 - o & w - w @ o 2 5 + @ - - 5 5.s.p.p.p.p.9.",
") 2.@Xs.q.q.u.y @ - @ 3 o.i.~ 1 2 2 - - @ 4 @ 4 @ - 2 3 ^ 9 + 1 - 9 q.p.p.p.a.9.",
"/ ..i.i.u.q.p.u o @ Q u.q.q.p.[ + - - - - +   + - - + r a.5.3 & 1 @ { p.p.p.a.9.",
"/ -.OXs.u.u.p.7.~ o.q.u.q.q.p.[ O 4 0 - - - o & 2 0 - u p.p.[ o & O [ a.u.u.a.9.",
"/ e.*Xf.q.u.p.p.u.q.q.q.q.q.p.[ O - 3 * 1 & . & - 4 @ r a.i.y o @ @ 5.s.q.q.p.9.",
"4.d.%Xf.q.q.q.u.q.q.u.u.u.u.s.{ o & + * + O O & & @ O u p.5.1 - @ 1 p.p.q.q.q.q.",
"8.j.%Xh.u.q.q.q.q.u.p.p.p.p.s.^ * * * 2 * + * ; ; ; * n 5.y - & + e p.p.q.q.u.7.",
"u.g.*Xj.u.p.u.q.u.p.p.p.p.p.5.6 # # # $ $ # $ # # # O ; m - + + Z q.q.q.p.p.p.p.",
"..y.$X~.Y.p.u.q.u.p.u.u.p.6.q f v z z z z , l z z z z l I %.W ..t.q.q.q.u.u.u.9.",
"F 2.&X&X@Xs.u.q.p.p.q.q.q.O.6 x v v v x 7 M q l v v v v > | s.OX@Xi.q.p.q.q.q.,.",
") 3.&X#X^.p.q.p.q.q.q.9.] ( 7 x x x v l 8 u.^ : v v x c l n p.s.s.p.u.q.u.p.p.9.",
") 3.&X^.Q.q.u.p.u.q.q.;.| M f v v x x * ^ p.q.4 l v x x x ; q.p.u.p.u.q.u.u.q.O.",
"/ 2.#Xf.8.u.p.p.p.i.q.u.u.Q f b v b l 8 q.p.p.^ > v b b z : q.p.q.q.q.a.q.9._ ) ",
"/ 3.#Xf.u.p.p.p.u.u.7.u.u.e % : : : $ ^ p.i.u.5.2 : : = : @ 5.q.q.q.p.p.u.q._ ( ",
"/ 2.#Xj.u.p.p.u.u.q.q.u.0.2 & + - + @ O.u.q.q.q.e o - @ + & u a.p.p.p.p.p.q._ _ ",
"/ 2.$Xj.u.u.u.u.q.q.u.q.X.4 4 - 0 - 9 a.q.q.q.q.! - 8 3 1 4 r u.p.p.p.p.p.u.6...",
"/ 2.%Xg.p.u.q.q.q.q.:.5 2 - - - 5 - 5 s.q.q.u.7.! & 5 - - - - 4 [ p.p.p.p.p.q.=.",
"( 2.#Xg.u.q.7.u.q.p.{ 5 0 9 9 0 t 0 e p.p.p.p.u.[ 5 t 0 0 0 0 0 Q u.q.q.p.u.$.) ",
") 3.$Xg.u.7.u.u.u.u.7.5.6.5.7.6.q.5. .9.u.p.p.q.7.6.7.6.5.6.6.O...q.u.q.,..._ _ ",
") 3.*XY.p.u.u.a.a.p.u.p.s.s.s.p.p.q.$.*.q.p.a.p.q.p.p.s.p.p.a.;.$.p.s.p...) _ @."
};
