/* XPM */
static char *result[] = {
/* columns rows colors chars-per-pixel */
"40 40 58 1 ",
"  c #55463F",
". c #564740",
"X c #574842",
"o c #5A4B44",
"O c #5C4F49",
"+ c #5E514C",
"@ c #5C5552",
"# c #5D5956",
"$ c #5D5C5B",
"% c #604F48",
"& c #61544E",
"* c #65584F",
"= c #615651",
"- c #625B56",
"; c #685F57",
": c #615D5A",
"> c #5F605E",
", c #61605F",
"< c #6B635B",
"1 c #71665B",
"2 c #74695D",
"3 c #585F61",
"4 c #5E6261",
"5 c #5F6769",
"6 c #5E696C",
"7 c #626463",
"8 c #616768",
"9 c #636C6E",
"0 c #6C6F6B",
"q c #736D63",
"w c #786C60",
"e c #6F716C",
"r c #7B7266",
"t c #75736B",
"y c #656E71",
"u c #686F70",
"i c #677173",
"p c #6A7374",
"a c #737773",
"s c #757B75",
"d c #797E77",
"f c #777D78",
"g c #787E78",
"h c #837B6D",
"j c #847F72",
"k c #7C817A",
"l c #83857A",
"z c #86887D",
"x c #8B8B7E",
"c c #938D7C",
"v c #92907F",
"b c #8E8E80",
"n c #918F80",
"m c #949281",
"M c #9A9683",
"N c #9E9A86",
"B c #A09C87",
"V c #A29E89",
/* pixels */
"o@9+O9$ $5Xoo$69# o. @6y96@  XoX.ooooooo",
"@-7<qft<at1;#efgt1111qfffsq1<12112<-<21;",
"63.hMMNBBBMl9xMMBBMMNMMMMBVNBNNBBBbinNMl",
"@<hcmdfddddp9sddsdmNBxssdgkkkxMzgfayslMj",
"o2BMx969yi999yy999xMNd699iyiyfmfy699upch",
"o2Nde99iiiiiiii99yppap9yiiii99a99yyiy9i7",
"o2Ns69yiiiyyyyy9yi99yy9iiyyyyyyyyyii997#",
"o1Ma99yiii99999iii9999iiy999yy9yi9yiy7&O",
"o2Nf999999999yyipi99iiiiy9yy9yyii9yi997:",
"o2Nkp99999999yiiii99ipipy9yi9yiiy99i99i7",
"o1NMx99999&-9ii9ii969999yyy999y6999999p7",
"o1Nnly9yp9=7yyi9ii999999yiyy96>9y999999-",
"o1Mfiiyipiiii99iii996yiiiiii9$o,iiy9y0&O",
"O1Nfyiyyyiiiiiyy9i99iiiiiiiyy9$8yiy998Oo",
"o1Vs6yy9yiiiiii999iiiiiiii99yi999iy998&o",
"o<Mfy9y999yy999i9999999ipi99iiiy9yipy9OO",
"o2Mg99999999999y9999>0pp9ii9iii999yyi9#+",
"o2Vg6969iy999ii999i8XrMp999i99i99999ii9>",
"O;lpy9yyy999y9yy99y9$efe99iiyiiy9y99yy9,",
"O-iiiiii999yi99i9999996ipiipipi99iy9ip9,",
"o1Ma99yiiyiy999i99iy999999iiiy9iiiiiiii,",
"o1ma99yiiiiy999ii9yi999999yiii99yyiyiii7",
".#iii6yiiiiy999iii99iii99iiiiy999999iii7",
".:bpyyiiy9y9999iy9999y9999iiii99iyyiy9i7",
".2Vf6iii9999999i9999999999yiii6iiiii99i7",
"4aNs999y99yyyyiiiiyy99i999ii9999y9yi9996",
"6fNsy9969yiiiiiiiyiy99i9999y9944499yyy96",
"ygNkyiy9iiiipiii99iy9ypiy999i7oXo999yii9",
"#tBxkpy9iiy999yy99iy9yiiii99i9:qr999yyy7",
" 1NBMiyyii99999pp9yy9yiiii99iiixmp9py6y$",
"o2BNmu9y999,&O;mky99i99ii99999ippiyyyyi7",
"o2Nvlyyiy99,&o*mkyyyii9i99999iiiyyy9yy9#",
" 1Ma6iiiii99i++yy9yiiiy99999yyuyy99yy8O.",
" 1Mdyiiiiy9yi7>iyyyyyy999yyyyyyyyyyyi8oo",
" 1Mdiiiy999yiiiiii999999yyyy96yypiiii9Oo",
"X1Ngy9yy9969y9yiiiyy9999yyyy9yyyyypiiy8#",
".1Ngi9999696999yiiuy9y96yyyyyyyyyyyyiy9#",
" 1Mfy996999y9999yiyyyiyyyipi96yy69y6iy%o",
"X1Ngy69iy96yyyyyyy:7yyiy9yyyyyy7,yyy7-OO",
"owVkiyippiyipppiu9==yipyyyypyyp:%upp#oO%"
};
