/* XPM */
static char *result[] = {
/* columns rows colors chars-per-pixel */
"40 40 205 2 ",
"   c #0B0C07",
".  c #1B1814",
"X  c #241C1B",
"o  c #1E2216",
"O  c #232718",
"+  c #2A341A",
"@  c #303E1A",
"#  c #231F22",
"$  c #2C2725",
"%  c #332926",
"&  c #332C2A",
"*  c #2D3423",
"=  c #323A25",
"-  c #32322C",
";  c #3B322B",
":  c #343A2D",
">  c #383A36",
",  c #41342F",
"<  c #423432",
"1  c #483C37",
"2  c #36431F",
"3  c #3A4626",
"4  c #3E492B",
"5  c #3D4531",
"6  c #42492E",
"7  c #45522E",
"8  c #475829",
"9  c #454537",
"0  c #444C3A",
"q  c #56463F",
"w  c #4D5E31",
"e  c #4B5837",
"r  c #4A543B",
"t  c #515D3D",
"y  c #556734",
"u  c #54613D",
"i  c #596C3B",
"p  c #4E4A49",
"a  c #564741",
"s  c #574842",
"d  c #5B4B44",
"f  c #5E4F49",
"g  c #525C43",
"h  c #5D514B",
"j  c #565A48",
"k  c #515753",
"l  c #5C5553",
"z  c #565955",
"x  c #5E5955",
"c  c #555B5B",
"v  c #5C5C5A",
"b  c #604F48",
"n  c #61544D",
"m  c #645B4C",
"M  c #675B53",
"N  c #625B56",
"B  c #615D5A",
"V  c #576343",
"C  c #5B6443",
"Z  c #5C6A43",
"A  c #58614E",
"S  c #5E6B4A",
"D  c #5C6551",
"F  c #5F6A57",
"G  c #5D625E",
"H  c #616D4C",
"J  c #637547",
"K  c #64734A",
"L  c #67774A",
"P  c #6C7C4D",
"I  c #6C6457",
"U  c #646F55",
"Y  c #62635C",
"T  c #6B635B",
"R  c #656D5B",
"E  c #71665B",
"W  c #74695D",
"Q  c #7A6C5B",
"!  c #657451",
"~  c #6B7757",
"^  c #6D7B53",
"/  c #5A5F61",
"(  c #5D6364",
")  c #5D6B6F",
"_  c #626463",
"`  c #616769",
"'  c #656A68",
"]  c #636C6E",
"[  c #766E63",
"{  c #66706D",
"}  c #6B736C",
"|  c #6F796E",
" . c #777B66",
".. c #74736B",
"X. c #656E71",
"o. c #686F71",
"O. c #677173",
"+. c #6A7374",
"@. c #6E7875",
"#. c #727772",
"$. c #757B75",
"%. c #797D76",
"&. c #767C79",
"*. c #787E79",
"=. c #817761",
"-. c #897E65",
";. c #847C6C",
":. c #907F76",
">. c #6F824F",
",. c #728454",
"<. c #75845A",
"1. c #77895A",
"2. c #798B5B",
"3. c #7E905E",
"4. c #7A8665",
"5. c #7E9060",
"6. c #7C817A",
"7. c #848867",
"8. c #839565",
"9. c #869967",
"0. c #84936D",
"q. c #869868",
"w. c #8A9C6B",
"e. c #868472",
"r. c #838C71",
"t. c #82857B",
"y. c #86887D",
"u. c #8C8B7E",
"i. c #928B78",
"p. c #8A9675",
"a. c #8D9B74",
"s. c #949379",
"d. c #8FA16F",
"f. c #93A375",
"g. c #97A877",
"h. c #97A77A",
"j. c #9CA77D",
"k. c #9CAD7C",
"l. c #9FB17D",
"z. c #ADA97F",
"x. c #7C8485",
"c. c #8C8D82",
"v. c #918F80",
"b. c #959281",
"n. c #9A9683",
"m. c #9E9A86",
"M. c #9F9C88",
"N. c #989A9B",
"B. c #A08983",
"V. c #A19C86",
"C. c #A29E89",
"Z. c #AF9A8E",
"A. c #97A282",
"S. c #9CA983",
"D. c #A3AE83",
"F. c #A9A588",
"G. c #B2A98C",
"H. c #A4B485",
"J. c #A6B984",
"K. c #A8B987",
"L. c #A5B488",
"P. c #A9B68A",
"I. c #ABBC8B",
"U. c #A3AB94",
"Y. c #B0A792",
"T. c #A7B193",
"R. c #ABB493",
"E. c #ADB994",
"W. c #B2BD9A",
"Q. c #BEB89C",
"!. c #B8B4A0",
"~. c #C2AE9E",
"^. c #C3BB9A",
"/. c #C9B4A6",
"(. c #AFC08F",
"). c #B5C594",
"_. c #B7C895",
"`. c #B8C997",
"'. c #BACB99",
"]. c #B6C2A1",
"[. c #B9C3A3",
"{. c #BDCAA2",
"}. c #C2CEA6",
"|. c #C2C6A8",
" X c #C3CBAC",
".X c #C8D4AE",
"XX c #C7CEB4",
"oX c #DFCEB7",
"OX c #CCD7B4",
"+X c #CED5BB",
"@X c #D1D3BD",
"#X c #D4DEBD",
"$X c #E0CDB8",
"%X c #D9DAC6",
"&X c #E4D9C5",
"*X c #DCE3CB",
"=X c #ECE2CD",
"-X c #E1E6D0",
";X c #E9E8D8",
":X c #F4EBD9",
">X c #F9F2D6",
",X c #F2EBE1",
"<X c #FBF4E5",
"1X c #FEFAEF",
"2X c #FFFBF0",
/* pixels */
"d N X.n f X.B a _ ( s d h ( ] O.v q d s a v ] X.X.) l s s s d s s d d d d d f d ",
"x x Y _ [ &...E ..#.E M x ..$.*...E E E T [ $.*.&.$.[ I I E W W E W T N E W W M ",
") c s ;.m.n.m.V.V.m.n.t.] u.n.n.m.C.n.s.n.n.b.n.n.M.M.M.V.m.m.V.C.V.c.O.c.V.n.t.",
"l T ;.s.v.%.$.&.%.6.%.O.] $.*.*.$.;.L ^ ^ P ^ K K e.t.6.6.y.m.y.*.%.#.X.$.t.n.e.",
"a E C.b.u.o.` ] O.O.] ] ] { @.$.H ~ g.I.K.W.).L.f.1.! | @.&.s.*.X.] ] ] ] @.u.;.",
"d [ V.*.o.] X.o.O.O.X.O.+.O.F S f.).`.`..X-X-X-X*X.XS.>.! ] $.X.] X.X.O.] o.+._ ",
"a W m.$.) ] X.o.O.O.X.O.$.R 1.k.).`.).J.F.R.G. X|.+X*X}.8.! @.o.X.X.O.O.] ] _ l ",
"a E n.$.` ] X.O.O.O.] ] D 1.w.I.`.P.s.V.^.@X+X&X%XE.E.%X}.8.! O.O.] ] O.] ` n s ",
"d W V.$.X.` X.X.X.X.X.( S 8.k.`.P.=.Z./.:X2X1X1X2X;X'.R.%X{.^ | O.] ] O.O.] _ N ",
"d W V.*.o.] ] ] ` ] +.D 2.8.H.'.L.7./.oX$X:X<X<X,X%XQ.R.*X*Xh.K O.] ] O.] ] O._ ",
"s E V.n.u.X.] ) o.{ Y t 8.8.H.'.j.:.Z.~.$X&X=X&X!.V.Q.*X-X*X{.! ] ] ] ] ] ] +.` ",
"s E m.v.t.X.X.X.O.+.j L 8.8.H.I.-.B.i.i.V.G.G.V.Y.%X].R. X*X+X~ ] ] ] ] ] ] ' B ",
"f W n.&.o.o.X.o.O.O.D 2.q.8.H.).s.[ H.D.k.D.D.E.XX%X].[.W. X+X~ O.O.X.] X.' n d ",
"s E m.$.X.o.X.X.O.O.D 1.q.8.D.`.).P.'.`.'.`.'.k.4. .r.W.+XW.L.! X.O.X.) X.] h d ",
"a E V.$.X.o.X.X.o.O.D 1.q.8.q.H.(.H.P.'.).).).k.A.U.U.T.].'.l.K ] o.X.X.] ` h d ",
"d W m.&.X.) X.` ] ] D 1.q.8.8.<.5.Z H H.`.).H.C > * * D S.K.8.F X.X.O.o.o.' f d ",
"d W n.&.] ] ] ] ] ] A J q.q.8.u U 0.u 0.'.'.p.- I =.m O <._.>.} ] ] X.X.O.] x h ",
"d [ V.$.` ) ] ] O.O.@.V 5.q.5.: p. Xa.P.`.`.r.p ^.>X=X=.L K.<.} ] ] ] ] O.O.X.B ",
"d M t.@.X.X.X.X.{ X.@.j Z q.5.= C H.k.).).H.4.x ^.>X<Xz.1.).1.S ] O.] ] o.O.] _ ",
"b B O.O.O.O.O.O.] ) O.G * 3.q.,.= 7 i d.'.I.g.! I F.G.8.S.p.O e { O.O.] X.O.] _ ",
"d [ n.#.] ] X.O.O.O.O.) - 4 ,.d.1.= 4 g.'._._.K.U H Z a.U.$ * 5 O.O.O.O.O.O.O._ ",
"d E v.#.] ] X.O.O.O.O.] ] c p Z 8.,.L l._._._._.I.(.k.h.r.g 5 c O.O.O.] O.O.+._ ",
"s l O.O.O.] X.O.O.O.O.{ X.+.( - w i y 8.(.)._._.`.`.`.K.J.w.: ) ] ] ] ] O.O.+._ ",
"a B c.@.] X.O.O.X.X.] X.] ] X.) > 3 8 >.d.k.(.).).).I.k.L 0 c X.O.O.O.O.] X.O._ ",
"s [ V.&.` o.o.X.X.` X.` X.] X.+.) - O 2 t Z S S H H 6 4 9 _ t.6.$.@.O.O.] ] O._ ",
"/ #.V.$.X.] X.X.) X.X.X.X.X.O.O.] R t g z 0 5 r 5 + $ G c.} J >.1.<.{ O.] ] ] ) ",
"X.&.V.&.) X.) ] X.X.O.O.o.O.O.O.] V l.#X*X'.H.2.L.W.p.R 4 i J >.J.8.R o.O.] ] ) ",
"X.*.V.&.X.o.X.] X.O.O.o.o.O.O.O.] e 9.{.E.+X%XS.4. .! g 8.g.E.S.1.^ G X.O.O.O.O.",
"x ..m.c.6.@.X.X.o.O.X.X.X.X.o.o.' 6 7 1.d.(.OXR.u ,.!.'.k.k.}.[.J Z c O.X.X.X.` ",
"a E m.V.n.O.X.] o.X.X.` ` ` X.+.' $   + P 2.w.H.w.l.L.k.V g 8.g.~ g c O.] ] ] Y ",
"d W V.m.v.o.X.X.X.] X.Y n f M v.$.$ X X + 7 i 5.5.>.w @ - o.g ,.<.k o.] X.X.O.` ",
"d W V.v.t.X.X.X.X.] ] G l d M v.#.# ; < O o O 4 u + O - ] O.c = 9 ) o.X.X.X.' v ",
"a E n.$.] X.O.O.O.O.] ] X.h h O.` & ; q 1 $ X X . X X p x.o.&./ / +.X.o.X.` f s ",
"a E n.$.X.O.O.O.X.X.] X.O._ _ O.' 1 1 n M < . % $ ; ; s &.X.X.o.X.) X.o.O.` d d ",
"a E m.$.O.O.O.O.X.] ) ] O.O.O.O.] < s =.-.q > & % ; , < l o.] X.O.O.O.O.O.] f d ",
"a E V.&.X.] X.] ] ] ] ] X.X.X.+.x j I Q =.M N.o.& ; 6 9 j R O.X.X.O.O.O.O.X._ v ",
"a W m.&.O.] ) ] X.` X.` ] ] X.+.> 2.8. .t j X.+.> @ y ,.1.e @.X.X.X.X.o.o.o.` B ",
"a E n.&.O.) ] ] ] ] ) X.] ] ] o.z r 0.a.7.z X.X.` : w K t D O.X.] ] ) X.o.X.f b ",
"a E n.&.X.] ] X.X.] X.) X.o.X.X.] ` _ ' @.] O.X.X.` ' ] ' ] O._ / X.X.X.( B f f ",
"b [ C.:.O.X.O.O.+.O.o.O.O.+.+.O.O.{ n n ] O.O.X.X.X.O.+.X.O.+.B b o.+.+.x s f b "
};
