/* XPM */
static char *result[] = {
/* columns rows colors chars-per-pixel */
"40 40 204 2 ",
"   c #0B0A07",
".  c #1B1815",
"X  c #201718",
"o  c #251D1C",
"O  c #202713",
"+  c #252B1A",
"@  c #292E1C",
"#  c #2C351C",
"$  c #313E1D",
"%  c #2D2422",
"&  c #2B2C24",
"*  c #2A2729",
"=  c #352B28",
"-  c #2D3323",
";  c #353827",
":  c #31352D",
">  c #3C312F",
",  c #353C2B",
"<  c #342E30",
"1  c #393A36",
"2  c #4A2832",
"3  c #552939",
"4  c #423531",
"5  c #4D3236",
"6  c #493B36",
"7  c #4B3C3A",
"8  c #53323A",
"9  c #36451F",
"0  c #394327",
"q  c #39422A",
"w  c #3E4437",
"e  c #42482D",
"r  c #45542C",
"t  c #474435",
"y  c #464D3A",
"u  c #56463F",
"i  c #4B5638",
"p  c #515D3D",
"a  c #526532",
"s  c #55633D",
"d  c #596A3C",
"f  c #692648",
"g  c #6D2A4C",
"h  c #66394A",
"j  c #772C55",
"k  c #763155",
"l  c #793654",
"z  c #7B3955",
"x  c #474644",
"c  c #574741",
"v  c #574942",
"b  c #5B4B44",
"n  c #5D4F48",
"m  c #535D42",
"M  c #575947",
"N  c #5D524B",
"B  c #554F50",
"V  c #5C5653",
"C  c #545854",
"Z  c #5D5954",
"A  c #565A5D",
"S  c #5D5C5A",
"D  c #634A4B",
"F  c #60534C",
"G  c #675F4D",
"H  c #6A4356",
"J  c #675C53",
"K  c #635B54",
"L  c #615D5A",
"P  c #576343",
"I  c #5C6A45",
"U  c #5B634B",
"Y  c #5D6A49",
"T  c #5C6452",
"R  c #5F6955",
"E  c #5F615F",
"W  c #65624A",
"Q  c #606D4C",
"!  c #627345",
"~  c #65754C",
"^  c #677949",
"/  c #6A7B4B",
"(  c #616A55",
")  c #67675A",
"_  c #6B635B",
"`  c #666C5C",
"'  c #71665B",
"]  c #74695D",
"[  c #7B6C5C",
"{  c #677455",
"}  c #6C7C51",
"|  c #6B7559",
" . c #797A5C",
".. c #5D6263",
"X. c #5E696C",
"o. c #5D6C70",
"O. c #626463",
"+. c #626B65",
"@. c #616768",
"#. c #636C6E",
"$. c #6A6B68",
"%. c #726D64",
"&. c #786C60",
"*. c #67706F",
"=. c #6C736D",
"-. c #747C66",
";. c #74736A",
":. c #656E71",
">. c #686F70",
",. c #677173",
"<. c #6A7374",
"1. c #6E7678",
"2. c #727575",
"3. c #7F7572",
"4. c #757B75",
"5. c #757C7A",
"6. c #787E79",
"7. c #97466E",
"8. c #9B4C6D",
"9. c #885066",
"0. c #9E536D",
"q. c #9F4E77",
"w. c #9E5176",
"e. c #A55477",
"r. c #837861",
"t. c #847B6D",
"y. c #827F7B",
"u. c #6F8250",
"i. c #728355",
"p. c #748459",
"a. c #78875C",
"s. c #7A8C5C",
"d. c #7F905F",
"f. c #7B8766",
"g. c #7D8C62",
"h. c #798278",
"j. c #7C817B",
"k. c #85836B",
"l. c #839565",
"z. c #83926D",
"x. c #879968",
"c. c #8A9D6A",
"v. c #848372",
"b. c #83857B",
"n. c #85897E",
"m. c #8B8B7D",
"M. c #938D7C",
"N. c #879174",
"B. c #8B9576",
"V. c #8E9E74",
"C. c #92907F",
"Z. c #8EA16E",
"A. c #93A474",
"S. c #97A877",
"D. c #95A37C",
"F. c #9AAB7B",
"G. c #9FB07F",
"H. c #B05D84",
"J. c #B66687",
"K. c #BF6C8B",
"L. c #C0698B",
"P. c #828485",
"I. c #8C8D81",
"U. c #918F80",
"Y. c #959381",
"T. c #9A9683",
"R. c #959B85",
"E. c #9E9A86",
"W. c #A09C87",
"Q. c #A29E89",
"!. c #9BA685",
"~. c #9FB080",
"^. c #A4A887",
"/. c #B5AE89",
"(. c #A3B383",
"). c #A7B986",
"_. c #A7B58B",
"`. c #ABBC8B",
"'. c #A5AB94",
"]. c #ADBB92",
"[. c #ABB399",
"{. c #BCB292",
"}. c #B2BC9B",
"|. c #AFC18D",
" X c #B5C594",
".X c #B8C796",
"XX c #B9C997",
"oX c #B5C29D",
"OX c #BACA9A",
"+X c #BAC4A3",
"@X c #BCC8A4",
"#X c #C1CEA3",
"$X c #C1CBAB",
"%X c #C7D3AB",
"&X c #C7D3AC",
"*X c #CBD5B5",
"=X c #D0DBB7",
"-X c #D1D8BE",
";X c #D3DAC3",
":X c #DEE4CD",
">X c #E0E5CE",
",X c #E8E8D2",
"<X c #F8EFD4",
"1X c #FFF8E7",
/* pixels */
"b K #.V n :.S c ..O.v b n ..#.,.Z c b b u S #.:.#.X.N u v v b v c b b b b b b b ",
"Z Z O._ &.6.;.' ;.;.' J Z ;.4.6.;._ ' ' _ ;.4.6.6.6.%.' ' ' ] ' ' ] _ K _ &.&.J ",
"o.A v t.E.T.E.W.W.W.E.b.:.I.T.T.E.E.T.Y.T.T.T.T.T.W.W.W.E.E.E.E.E.Q.m.,.U.E.T.b.",
"V _ t.M.C.6.4.6.h.h.4.<.X.4.j.y.3.W N K N h H n M h.b.j.j.n.E.m.h.h.2.#.4.b.T.v.",
"u ] ^.C.m.#.#.#.,.,.X.X.#.:.2.H k k g z g k g 3 t Y ( =.<.6.Y.6.:.X.#.#.*.<.C.t.",
"b ] W.6.>.#.#.,.,.,.,.,.<.,.H j 8.g j w.K.K.q.g 6 A.A.I R #.1.*.#.:.,.,.#.#.,.O.",
"b ] E.4.#.#.#.,.,.,.*.,.4.M D H.e.J.0.w.K.7.q.g 6 S.XXF.p.( <.,.:.,.,.,.#.#.O.Z ",
"u ' T.2.#.#.:.,.,.,.#.*.{ d.9.7.z H.w.k f k w.2 v.oXXX`.x.p.( *.,.#.#.,.,.O.D b ",
"b ] W.4.:.#.#.:.#.#.:.+.u.&Xm.h 8.k J.L.z 0.l 7 [.%X X XF.l.Y *.<.#.:.,.:.#.O.K ",
"b ] W.6.>.#.#.#.#.#.<.~ !.:X;Xv.8 l H.z f 3 8 R.:X#X XXXF.x.a.T >.#.#.:.#.#.,.@.",
"c ] W.Y.m.#.#.#.:.$.%. .$X:X>X;XN.W 3 2 5 | !.:X:X@X X.XF.l.d.p #.#.#.#.#.#.,.@.",
"c ] W.U.b.:.:.:.,.#.;.a.;X:X@X].@X+XR.R.!.-X=X%X%XOX XXX~.l.x.! T 1.#.#.#.#.@.L ",
"b ] T.6.>.>.:.:.,.,.h.f.-X@X}.+X+X-X:X>X:X%X X X X X.X.X~.l.x.p.` 5.:.#.>.#.F b ",
"c ] T.4.:.<.:.:.,.,.5.p.`.}.=X}.h.-.f.(.@X X X XXXXX.X.XF.l.x.p.` 5.:.#.:.#.n b ",
"c ' W.4.:.:.:.#.,.,.h.} (.@X}.'.'.'.V.(. X.X XXX).(.`.(.x.l.x.i.` 5.:.:.#.@.F b ",
"b ] T.6.:.o.:.#.#.#.,.{ x.`.!.U & - e W (.OXXX(.I Y g.p.l.x.x.p.+.5.:.,.>.@.n b ",
"b ] T.6.#.#.#.#.#.#.:.+.} .X| # W r.G > D.OXOXf.s N.( s x.x.l.! T 1.:.:.,.#.Z N ",
"b [ W.4.X.#.X.#.,.,.#.+.a.).^ k.,X<X{.x B.XXXX).V.&Xf.q l.x.a.p $.#.X.:.:.,.#.O.",
"b _ j.1.:.:.:.:.,.#.2.Q l. Xp./.1X<X{.B z.(. X XF.(.p q l.x.s M :.:.#.#.:.:.:.S ",
"b K <.,.,.,.,.,.:.X.b.i @ D.D.z./.^.) | F.`.XXx.s r , a.c.s.- @.:.:.:.:.:.<.:.O.",
"b %.T.2.X.#.,.,.,.,.h.w + : [.z.P W | `. X.XOXZ.0 0 f.c.} 0 w :.<.:.,.<.,.,.:.O.",
"b ' Y.2.#.#.:.,.,.,.1.E y P B.D.G.].`.XX X.XXX(.d s.l.I x A :.:.:.:.:.:.,.,.<.+.",
"v Z ,.,.,.#.,.,.,.,.1.1.: Z.).`.XXXXXX.X.X X`.s.a d i , <.1.:.X.o.#.#.:.:.<.<.O.",
"c J n.1.#.#.,.,.#.*.,.#.C w } (.|. X X X|.F.Z.^ r 9 , #.1.:.#.:.:.:.:.:.:.:.,.O.",
"b ] Q.4.#.:.,.,.#.,.4.h.b.E 1 e r Q Q Q Y I i 9 + w <.<.,.,.#.*.,.,.,.,.:.X.,.O.",
"..2.E.4.#.#.#.:.*.p.s./ ! f.I.A + - w i 0 y Z m p -.,.,.#.#.#.#.:.#.:.,.:.#.:.X.",
"o.6.E.5.:.#.#.:.-.c.(.u.^ s e | B.oX~.g._.%X>X=XA.U #.*.#.#...O...#.#.,.:.#.:.X.",
",.h.E.6.:.,.:.<.-.} s.'._.A.d.m | -.g.!.;X*X].OXs.p #.#.,.O.v v n O.#.#.:.,.,.:.",
"K ;.Q.m.j.<.:.,.=.I ^ $XOXF.F.@X}.} I }.%X`.Z.u.e y #.#.,.$.S %.&.#.#.#.:.:.:.O.",
"c ' W.W.Y.1.:.,...P } F.l.m Y G._.F.Z._.x.s.^ @   > >.#.,.,.,.m.Y.,.,.,.:.X.:.O.",
"b ] W.T.C.,.#.:.5.C f./ U $.- $ a u.l.a.d r + o o < #.:.#.:.,.1.1.,.:.:.:.:.,...",
"b ' W.M.n.#.:.<.*.E y : V J N = O # s 0 + . @ 4 = * ..#.#.:.,.:.:.:.#.#.:.:.$.S ",
"c ' T.4.:.:.,.,.,.1...A <.N L 1 X o . X o % 7 u > > O.#.:.:.:.:.#.#.#.:.:.@.b b ",
"c ' T.4.:.,.,.,.:.:.#.:.:.O._ x 4 = % % . 7 G D 6 7 #.#.:.:.:.:.:.:.:.:.:.@.n v ",
"c ' T.6.:.,.,.:.:.#.#.#.,.,.B 5 4 > = & < v k.r.u 7 <.,.:.#.:.:.,.,.<.:.<.#.n n ",
"c ] E.6.:.#.:.:.#.X.#.#.#.) M t e ; * A P.J r.' W M S #.X.:.:.:.:.:.,.<.,.#.X.Z ",
"c ' E.6.,.#.#.#.#.#.#.#.+.p s.u.a # x <.5.M W -.l.i.: :.:.:.,.:.:.:.:.:.:.:.#.K ",
"c ' T.6.:.#.X.:.#.X.#.#.,.T p ! r 1 *.*.5.U g.V.z.i A :.#.:.>.:.#.#.:.o.:.>.F n ",
"v ] E.6.:.#.#.:.:.#.#.#.,.,.+.#.#.#.O.O.,.,.1.<.:.X.>.<.#.:.:.O.S :.:.:.O.K n n ",
"b &.Q.j.,.:.,.,.<.,.:.,.,.<.<.<.<.:.F F #.,.,.:.:.:.:.<.:.:.<.L F >.<.<.Z b n D "
};
