/* XPM */
static char *result[] = {
/* columns rows colors chars-per-pixel */
"40 40 194 2 ",
"   c #56463F",
".  c #6C355B",
"X  c #6C385A",
"o  c #72355D",
"O  c #703C5D",
"+  c #7B3764",
"@  c #574741",
"#  c #574842",
"$  c #5B4B44",
"%  c #5E4F49",
"&  c #5D514B",
"*  c #5C5652",
"=  c #5F5855",
"-  c #5D5C5A",
";  c #604F48",
":  c #61544E",
">  c #65584F",
",  c #77425F",
"<  c #625B56",
"1  c #655A54",
"2  c #615D5A",
"3  c #5F605F",
"4  c #6A6057",
"5  c #61605F",
"6  c #6B635B",
"7  c #71665B",
"8  c #74695D",
"9  c #6A4E62",
"0  c #784964",
"q  c #655564",
"w  c #655766",
"e  c #645E69",
"r  c #74566A",
"t  c #7C5D71",
"y  c #5D6263",
"u  c #5E6A6E",
"i  c #5D6C70",
"p  c #626463",
"a  c #64656C",
"s  c #636C6E",
"d  c #766E63",
"f  c #75616F",
"g  c #6F716C",
"h  c #75736B",
"j  c #696770",
"k  c #656E71",
"l  c #6A6C71",
"z  c #7A6876",
"x  c #7C6B7A",
"c  c #677173",
"v  c #6A7374",
"b  c #6F7876",
"n  c #6F7579",
"m  c #737772",
"M  c #757B75",
"N  c #797D76",
"B  c #73757A",
"V  c #767B7A",
"C  c #787D79",
"Z  c #8E3A6E",
"A  c #953D73",
"S  c #9C3E75",
"D  c #A23E76",
"F  c #804465",
"G  c #824C6C",
"H  c #8A516E",
"J  c #9B4773",
"K  c #815C75",
"L  c #A54C75",
"P  c #AB4D74",
"I  c #A44078",
"U  c #AE437C",
"Y  c #B2457E",
"T  c #AA5075",
"R  c #847B6D",
"E  c #8C657D",
"W  c #836B7C",
"Q  c #8C6C7D",
"!  c #966A7D",
"~  c #85757B",
"^  c #7C817A",
"/  c #868173",
"(  c #83857B",
")  c #86887D",
"_  c #8C8B7E",
"`  c #938D7C",
"'  c #92907F",
"]  c #7B7981",
"[  c #BB4E81",
"{  c #966F80",
"}  c #827481",
"|  c #8D7287",
" . c #8B7789",
".. c #AD6F82",
"X. c #B36586",
"o. c #BD7E8F",
"O. c #C35785",
"+. c #CA5185",
"@. c #D05C86",
"#. c #D35388",
"$. c #DA578B",
"%. c #D55B8B",
"&. c #DD5A8D",
"*. c #E45C8E",
"=. c #E75F91",
"-. c #C86689",
";. c #D8638E",
":. c #C76D91",
">. c #DC6290",
",. c #DD6E96",
"<. c #D57995",
"1. c #DF769A",
"2. c #E26291",
"3. c #ED6292",
"4. c #E66A95",
"5. c #EC6B96",
"6. c #EC6F98",
"7. c #F46594",
"8. c #F36996",
"9. c #FA6997",
"0. c #F76C99",
"q. c #FC6C98",
"w. c #E37497",
"e. c #E87399",
"r. c #F2779B",
"t. c #FC719B",
"y. c #FC7B9E",
"u. c #FE7FA0",
"i. c #918F80",
"p. c #949282",
"a. c #9A9783",
"s. c #9E9A86",
"d. c #A09C87",
"f. c #A29E89",
"g. c #BBA1AE",
"h. c #C88695",
"j. c #D7849A",
"k. c #CB919D",
"l. c #E2829E",
"z. c #DC89A0",
"x. c #C79DB0",
"c. c #E484A0",
"v. c #ED84A1",
"b. c #E98DA3",
"n. c #F385A2",
"m. c #FD83A2",
"M. c #FD8BA5",
"N. c #FD8CAA",
"B. c #E89AA7",
"V. c #F795A9",
"C. c #FD93A9",
"Z. c #F799AB",
"A. c #FE9DAD",
"S. c #EF99B2",
"D. c #FC9BB3",
"F. c #F99AB5",
"G. c #C4ABB5",
"H. c #C2B5BF",
"J. c #E7A1AB",
"K. c #FDA1AF",
"L. c #FDA4B2",
"P. c #FEABB4",
"I. c #FAA8B9",
"U. c #FFB0B6",
"Y. c #FCB2BD",
"T. c #C7BAC4",
"R. c #FAA6C0",
"E. c #FBB5C4",
"W. c #F7BAC6",
"Q. c #FDBDC3",
"!. c #FAB9CC",
"~. c #CEC3CB",
"^. c #FCC1C6",
"/. c #FBC4CC",
"(. c #FCCBCF",
"). c #FAC5D2",
"_. c #FBCDD4",
"`. c #F3CDD8",
"'. c #EED4DD",
"]. c #FAD2D6",
"[. c #F6D5D9",
"{. c #FAD5DA",
"}. c #FADBDE",
"|. c #F7D7E1",
" X c #FADDE2",
".X c #EFE5EA",
"XX c #FAE3E5",
"oX c #F9E7E9",
"OX c #F9EBEC",
"+X c #F9EFF0",
"@X c #F5F4F5",
"#X c #F8F4F4",
"$X c #F8F7F8",
"%X c #F8FAFA",
/* pixels */
"$ < s * & k 3   y p # # $ y s c -   # $ @ - s k k u *     # $ # # $ $ % $ $ $ $ ",
"= = y 6 8 C h 6 h m 8 4 - h M C h 6 7 7 6 d M C C M h 7 6 7 8 7 7 8 6 < 6 8 7 4 ",
"i - # R a.a.s.d.s.a.s.^ s _ a.a.d.d.a.a.s.s.a.a.a.s.s.s.s.s.s.d.s.s._ c ' s.a.( ",
"* 6 R ` p.N N N ^ ^ N g s M N N N N ' d.d._ m M N ^ ^ ^ ^ _ a.) ^ ^ m s M ( a./ ",
"  8 f.' _ k s s c c s s k k k u s s _ a.s.N u s s c c c c N ' N k s s s k v ' R ",
"$ 8 d.^ k s s k c c c k k c k s s k c v b c k l c c c c s k v c s k c k s s c p ",
"$ 8 d.N u s k k c c k k k k s s j a a p a a s c k k c k s s c s k c c c k s p * ",
"  7 ' m s s k v c c s s s B B B x K G K K F W ] B v s s c k s c c s s c k p & $ ",
"$ 8 s.N s s s s s k s s w } W | ~..XS.[.'.F.T.E H x e a k k k c c s s c s s p < ",
"$ 8 s.^ v s s s s s c  .| T.@X X}.}.].+X+X/.#X`.R.T.| ~ B k c c c s s c s s v p ",
"# 8 s.' _ s u s l w f g.[.OX%X X(._.+X$X}.{.$XXX(.$X#XT.} a k u s s s s s s v p ",
"# 8 d.' ) c s n }  .H.oX_.{.OXXX}.+X$X}.[.$X#X{.].}.OX$XT.~ l s s s s s s s s 2 ",
"$ 8 a.C c c k x g.{.{.oXoX].oXXX[.OX}.}.$X#X].}.OX].].oX`.x.W p c c k s k k % % ",
"# 8 s.M s B ] g.(.K.m.F./.OX$X_. X).].OX{.E. X$X%X%XOX/.F.E.G.} V c k s k p : $ ",
"  7 d.M u V K W.K.D.!.!./._.E.D.|.F.|.{.P.L.OX{.!.R.!./.E.P./.G.x l c s s p & $ ",
"$ 8 a.N c x h.A.A.).(.(.Q.C.M.P. XF.{.Y.M.Q.{.C.K.C.M.L.{.^.C.Y.k.W V k c s % $ ",
"$ 8 s.C s 0 J.A.M.I.M.P.P.M.C.P.Q._./.L.y.P.(.E.N.U.P.M.N.L.D.M.A.h.t l l k * & ",
"$ 8 d.M a 0 B.L.m.L.C.m.A.L.M.A.U.D.L.L.m.K.U.I.M.P.P.L.A.M.A.K.M.B.0 k k k s 3 ",
"$ 6 ( v s 0 w.L.C.N.L.C.L.P.M.C.L.A.m.m.C.m.y.M.L.C.N.L.P.L.m.A.M.c.0 s c c s e ",
"$ < c c l O %.>.m.C.m.m.C.P.L.,.%.6.C.L.P.Z.V.A.b.2.q.4.z.P.m.C.Z.-.O s k c k p ",
"$ 8 a.B a O +.7.7.m.A.A.N.C.1.2.5.#.0.D.Z.;.&.6.0.*.*.9.%.c.e.3.2.;., l c c c p ",
"$ 8 i.M k 0 @.7.&.7.0.q.n.w.=.9.7.#.=.7.5.3.=.#.$.7.9.q.$.4.y.y.y.j.r l v c v p ",
"# = c c k B G r.3.#.&.7.&.&.9.7.&.=.&.#.#.$.3.3.=.&.=.7.+.:.z.z.h.Q n u c c v p ",
"# 4 ) v s B z <.u.u.6.*.&.5.t.#.=.9.u.9.8.*.#.$.t.r.O.U J A A J O l c s k k v p ",
"# 8 f.N u c v Q o.h.:.O.&.r.n.w.r.M.v.q.0.w.u.u.n.z.X.A D I I D X j v c s s c p ",
"y m s.M u s s B q 9 9 0 -.6.1.c.c.l.>.7.q.c.c.z.X.Z S D D S S A X j c c s s s s ",
"i V s.M k s s s k k c V ! j.r.>.$.&.9.m.*.$.+.D A S S S U U I D o a s c k s s u ",
"c ^ s.^ k c s s c c c c j ! ..j.M.O.L X.>.8.O.A [ A U U I S S + 9 s s s c c c c ",
"< h d._ ^ v k s c c k s c B x { ! Q B W J P %.[ S Y U S I Y I + R s s s k k c p ",
"  7 d.d.a.v k s c c s s s s c l e v c s a r T $.[ A S Y I S + z ' c c c k i k 5 ",
"$ 8 d.a.' k s c s s s 5 : % 1 p.( k s s c v x L &.A A D o . ] z b c k k k k c p ",
"$ 8 d.' ) k k c k s s 5 : # > p.^ k k s c k c f U +.Z r e j v s k k k s k k p 3 ",
"# 7 a.m s c c c c c s s c & & c k s c c c v k k ~ Z X - v c c s s u s c k p % # ",
"@ 7 a.N s c c c c k s s c p 3 c k k s k k k s s k s j k c k k k c s c c k s % # ",
"# 7 a.N c c c c s s s s c v c c c c s s s s s s k c c k s u s c c c c c c s % $ ",
"# 8 a.C c s s s u s s s k s k c c c c k s s u s s c k s s s k k s c c c c k p - ",
"@ 7 s.^ k s s s s s s u s s s c c v c c s s s s k c k k s s c s s c c c c c p 5 ",
"# 6 a.C c u s u u s s s u s s s k c s s c c c s k c c c s k c k s s s s c s : $ ",
"# 8 a.C s s s c s s u s u c s k k s 5 p s c c s s s k c s k k a 5 s s k p < % % ",
"; 8 f.( c c c c v v c v v v v v c s : : k c v c k k c v k k v < : k v v * $ % ; "
};
