/* XPM */
static char *result[] = {
/* columns rows colors chars-per-pixel */
"40 40 99 2 ",
"   c #1E190E",
".  c #171617",
"X  c #1D1A13",
"o  c #161719",
"O  c #171818",
"+  c #1A1A19",
"@  c #241B07",
"#  c #251D0B",
"$  c #281F0F",
"%  c #211C12",
"&  c #201E19",
"*  c #29200E",
"=  c #262116",
"-  c #2D2414",
";  c #25231E",
":  c #2B251C",
">  c #2E281D",
",  c #302714",
"<  c #352B17",
"1  c #302718",
"2  c #322A1A",
"3  c #392F1E",
"4  c #3C311F",
"5  c #242320",
"6  c #292622",
"7  c #2E2A23",
"8  c #2E2D28",
"9  c #352E22",
"0  c #373024",
"q  c #3B3224",
"w  c #353129",
"e  c #3C352A",
"r  c #3E382E",
"t  c #323535",
"y  c #3E3D35",
"u  c #323A39",
"i  c #423624",
"p  c #433826",
"a  c #403629",
"s  c #443B2D",
"d  c #4A3E2C",
"f  c #423C32",
"g  c #483F30",
"h  c #4D412E",
"j  c #454036",
"k  c #4D4333",
"l  c #45433B",
"z  c #4B463A",
"x  c #4E493B",
"c  c #504735",
"v  c #514A3B",
"b  c #474740",
"n  c #444944",
"m  c #4B4B44",
"M  c #4C4F49",
"N  c #524E42",
"B  c #4D524D",
"V  c #525246",
"C  c #54544B",
"Z  c #55584F",
"A  c #4D5652",
"S  c #4E5854",
"D  c #495959",
"F  c #515551",
"G  c #545A53",
"H  c #585B54",
"J  c #545D5A",
"K  c #595F5C",
"L  c #54615D",
"P  c #59625E",
"I  c #566463",
"U  c #5B6564",
"Y  c #566967",
"T  c #596966",
"R  c #5D6768",
"E  c #576A69",
"W  c #5B6C6C",
"Q  c #5A706F",
"!  c #5D6F70",
"~  c #5C7171",
"^  c #626C6D",
"/  c #65706F",
"(  c #636F70",
")  c #647373",
"_  c #6A7474",
"`  c #657779",
"'  c #6B7778",
"]  c #64797A",
"[  c #6B7A7B",
"{  c #737C7D",
"}  c #797F7F",
"|  c #6D7F81",
" . c #747F81",
".. c #797F80",
"X. c #6E8183",
"o. c #748285",
"O. c #798183",
"+. c #758689",
"@. c #76888B",
/* pixels */
"@ @ @ @ # o o o # # # @ # . X # X + . X @ @ @ @ X + + + # X + # # + # # . . . . ",
"2 2 1 - 2 6 6 7 $ # % % % : 6 1 : 7 t w < < < < 2 7 : : @ % . % = 6 : : 6 w u 8 ",
"f y r f s y g h , # o o & s d f g c U Z h h h h k h k i # X + + 7 h s f h Z ~ N ",
"J B r M F k s s p 0 + 5 e d x G l g P U J z z P m s h d q ; + 0 a f M Z g B W L ",
"` I f K I x z l k s + 8 g k V R B b U ! ~ B b W G j v z g 6 + d k l J U b S ! W ",
"+.' U W W W R I l w + 7 f K U R R W W ] +.^ U R U R E L k 6 + d V U E Q W W ! [ ",
"@.| _ ` ] W P V k e + 8 f E E W ) ' ` { o.' _ ` ^ U H V h 2 % d V R W W ] ] [ o.",
"+.+...+. .^ C h d a + 8 f E W R ' ..O.} } } O.+.` U v h h < * p V ! R ^ { O.@.+.",
"O....._ / o.^ H v a + 9 k I W W [ +.+.O.} ..{ ^ `  .W G k > + e m U W ( { o.+.@.",
"{ [ { ^ W X.] U v a + e v U ^ ) o.+.+...{ { ' R ) o.~ L k > = j A R ! ] ..O.+. .",
"Q ~ ! R R ~ ~ W v i @ l W W ~ +.o...O._ U W ! R W ~ ~ L f , = J R ! { ........^ ",
"W W ! W I B L Q v i X y Z Q ] +.+.o._ ^ R W W R J C R L y : - z J ! [ ..+.{ ( ^ ",
"U W ! E J f B E v a + 0 k I ) +.+.o.W U W W W I C k K F s 2 # e M ! ` ..@.] U U ",
"Q ! ! n l E G c k p # 4 h k Z ~ { { R R W W K l Z T v h h 6 + e f f K ( o.| ! U ",
"W W Q A m K M s h p % 3 k v Z R { { W W W W I n A J z d d > & a g m J ^ o.| Q W ",
"U W Q W K k d f h a + 8 j L R R ' } ~ W T W ~ ~ B r y s y 1 * d N U U ^ { ] Q ! ",
"v G ~ G V L V s g e O 0 k l F Q ^ / ~ K m K U C F G l d h > & d k M I ~ ) ) W C ",
"h V Y x k Y C h r 9 + 9 s s b T I P T A s F J d Z Y x d s : + i s s S Y Y I J l ",
"f f j y s j f y = * + % * e j k c c c k h c k f j c g q * % + + 7 h j j f f j z ",
"2 9 2 0 0 2 3 < * # X X % 3 3 q 4 4 4 q w 9 9 3 3 4 3 > # + + X = 4 4 9 8 9 9 9 ",
"# # # @ * @ * * # * *   + @ % + # # @ % + + X $ * @ # # + + + % * @ * @ + X @ + ",
"* # @ 4 i i i i B B i q p i p e e 9 X X #   * i i p q y D l e q q i i i i > + # ",
"# = - p k v c h I T v c h v c h g r 5 & # - < d c v f b W Z x f j x k d h q = & ",
"O > h a z P V h P T Q C h U P d d d s 7 + e d d G E l l R U P f M W b s h h h ; ",
"  > g M S E U Z U R ' U C U U C F Z f 7 o e z V P Q F F R ) / F J ! D A G m s ; ",
"@ , f L ~ ~ ~ ~ R ( .._ R R R R W Y f 9 + w l U W Q W W ~ [ } ^ W ~ ~ ~ W Z r ; ",
"@ 2 k H E Q ] X.o.o.@. .{ { ' W C c h 0 # 0 b W W R [ o.o.o.} {  .o.^ K z j y = ",
"# 2 h J W Q [ @.@.@.@.O.} { ' ) H x k 0 # w l Y W W o.@.+.O.O.} ..[ _ ^ n l r - ",
"+ 7 h L ~ Q ] O.+.+.@.O.{ ^ / } ` Y j 8 + w l U E ~ +.+.} +.@.O.' R ' { ! S f 1 ",
"  w H Y ~ X.{ } .. ._ ( / U ^ ) ~ T l 9 O n L U ) [ o.O.o.[ ] ' ~ W / ) ~ F a & ",
"@ e I R ~ +.o.O. .' U U ^ P U P E T c q + D W R ' @.O.o.+.] W Q ! ! U U ! S f & ",
"@ : j J ) +.+.+.` ! ! R U ^ J j L T c 4 # r n W ' O.+.X.~ ~ Q R W ~ m l R F g 1 ",
"* 1 h M K { { +.) W E W U H C m Z G k 4 @ q j G ^ [ o.{ W W W W I S B m F N s $ ",
"@ < h h c P ) ..) W R W U f b U N h h 4 # q s h G ~ { { U U R Q G f G K f g f 5 ",
"X 6 s C K U ) O./ R Q W W J F v k h s 9 # i x L T Q { [ R R R W U J V x g g g $ ",
"O 5 s Z P R / { W R Y E W U G c k g g 3 @ p x I E Q { ' R P P T U K N k g g g , ",
"O 6 s k x I W ) ~ I f F R c N U m s h 4 @ q f f G ~ ~ ~ ~ B j P F f G K f f f , ",
"X = 3 s k C F G G V f m C k c C x s 4 2 % : 9 s m H Z Z L l y B m f N C g w 7 $ ",
"@ @ @ i g r s d d g s s d d g d h p * X + # - e s h h h h h e e f d d d g w + % ",
"X & * = : - = 6 - : 5 : , : : , 1 - X X # # $ - , , - , - - - ; : 5 6 : , $ + a "
};
